<svg width="20" height="20" viewBox="0 0 20 20" fill="none" xmlns="http://www.w3.org/2000/svg">
<g clip-path="url(#clip0)">
<path d="M6.86392 17.1874C7.02755 17.1874 7.1602 17.0548 7.1602 16.8911C7.1602 16.7275 7.02755 16.5948 6.86392 16.5948C6.70028 16.5948 6.56763 16.7275 6.56763 16.8911C6.56763 17.0548 6.70028 17.1874 6.86392 17.1874Z" fill="#0BCAD4"/>
<path d="M13.1361 17.1874C13.2998 17.1874 13.4324 17.0548 13.4324 16.8911C13.4324 16.7275 13.2998 16.5948 13.1361 16.5948C12.9725 16.5948 12.8398 16.7275 12.8398 16.8911C12.8398 17.0548 12.9725 17.1874 13.1361 17.1874Z" fill="#0BCAD4"/>
<mask id="path-3-inside-1" fill="white">
<path d="M17.1832 13.6851C16.6676 12.9958 15.8405 12.5037 15.3363 12.4163L14.7583 12.316C14.7012 12.1125 14.5321 11.9537 14.3148 11.916L13.4991 11.7743C13.3358 11.7459 13.1694 11.7909 13.0425 11.8977C13.0072 11.9274 12.9766 11.9613 12.95 11.9978L12.1746 11.8668C12.1135 11.7612 12.0771 11.6388 12.0771 11.529V11.034C12.2495 10.9242 12.4168 10.8007 12.5782 10.6616C13.2506 10.0827 13.6734 9.24653 13.7633 8.33454C14.2559 8.31505 14.6506 7.90821 14.6506 7.41094V7.06184C14.6506 6.77993 14.5238 6.51915 14.3104 6.34575V5.56438H14.6653C15.5024 5.56438 16.1834 4.88337 16.1834 4.04626C16.1834 3.81747 15.9973 3.63134 15.7686 3.63134H14.3619L14.1283 1.93391C13.9536 0.664617 12.7482 -0.208235 11.4763 0.0434056C10.4967 0.23739 9.5032 0.23739 8.52348 0.0434056C7.26379 -0.205891 6.04797 0.651999 5.87152 1.93391L5.63789 3.63134H4.23125C4.00246 3.63134 3.81637 3.81747 3.81637 4.04626C3.81637 4.88333 4.49738 5.56438 5.33449 5.56438H5.68941V6.34575C5.47605 6.51915 5.34918 6.77993 5.34918 7.06184V7.41094C5.34918 7.90821 5.74391 8.31505 6.23652 8.33454C6.32637 9.24653 6.74922 10.0827 7.42152 10.6616C7.58297 10.8007 7.75031 10.9242 7.92262 11.034V11.529C7.92262 11.6388 7.88625 11.7612 7.82512 11.8668L7.04973 11.9978C7.0232 11.9613 6.99254 11.9274 6.95723 11.8977C6.83035 11.791 6.66398 11.7459 6.50066 11.7743L5.68492 11.916C5.46762 11.9537 5.29855 12.1125 5.24148 12.316L4.66344 12.4163C4.19227 12.498 3.3552 12.965 2.81652 13.6851C2.36027 14.295 2.11914 15.02 2.11914 15.7818V19.0332C2.11914 19.5663 2.55285 20 3.08598 20H16.9138C17.4469 20 17.8806 19.5663 17.8806 19.0332V15.7818C17.8807 15.0201 17.6395 14.295 17.1832 13.6851V13.6851ZM14.2493 16.2813C14.3337 16.6556 14.5072 16.9945 14.7511 17.2612C15.0118 17.5462 15.1553 17.9158 15.1553 18.302V19.4141H4.84457V18.302C4.84457 17.9157 4.98812 17.5462 5.24875 17.2612C5.50164 16.9847 5.67172 16.6581 5.7543 16.2906C5.78195 16.1676 5.895 16.0783 6.02316 16.0783H13.989C14.1134 16.0783 14.2228 16.1636 14.2493 16.2813V16.2813ZM7.1568 15.4924V13.307L7.49016 13.815C7.78395 14.2629 8.2834 14.5233 8.80418 14.5233C9.1032 14.5233 9.23715 14.4528 9.99988 14.2803C10.7596 14.4521 10.8967 14.5233 11.1956 14.5233C11.7163 14.5233 12.2158 14.2628 12.5096 13.815L12.843 13.307V15.4924H7.1568ZM12.0198 13.4936C11.7928 13.8395 11.37 14.007 10.9679 13.9104L10.6025 13.8225L12.0959 12.4477L12.6451 12.5406L12.0198 13.4936ZM13.7245 6.23657C13.5842 6.26169 13.4109 6.30911 13.2412 6.39841V5.56434H13.7245V6.23657ZM4.41801 4.21723H6.81949C6.98129 4.21723 7.11246 4.0861 7.11246 3.92426C7.11246 3.76243 6.98129 3.6313 6.81949 3.6313H6.22938L6.45203 2.01372C6.5818 1.07083 7.47633 0.433171 8.40977 0.618132C9.46488 0.826999 10.5349 0.82696 11.5901 0.618132C12.5223 0.43364 13.4179 1.06954 13.5479 2.01372L13.7705 3.6313H8.18523C8.02344 3.6313 7.89227 3.76243 7.89227 3.92426C7.89227 4.0861 8.02344 4.21723 8.18523 4.21723H14.1054C14.1056 4.21723 14.1059 4.21727 14.1062 4.21727C14.1064 4.21727 14.1066 4.21723 14.1067 4.21723H15.5818C15.5013 4.64989 15.121 4.97841 14.6654 4.97841C14.3345 4.97841 5.85984 4.97841 5.33441 4.97841C4.87883 4.97841 4.49852 4.64989 4.41801 4.21723V4.21723ZM6.75871 5.56434V6.39841C6.58891 6.30907 6.41566 6.26169 6.27535 6.23657V5.56434H6.75871ZM6.8052 8.03598C6.8018 7.87669 6.67168 7.7493 6.5123 7.7493H6.27352C6.08691 7.7493 5.93512 7.59747 5.93512 7.41091V7.0618C5.93512 6.9577 5.98309 6.862 6.06273 6.79844C6.19414 6.80989 6.4691 6.85524 6.65289 7.03712C6.90797 7.28942 7.34469 7.10903 7.34469 6.74739V5.5643H12.6553V6.74739C12.6553 7.10848 13.0916 7.28985 13.3471 7.03704C13.5308 6.85524 13.8064 6.80977 13.9371 6.79833C14.0168 6.86184 14.0648 6.95766 14.0648 7.0618V7.41091C14.0648 7.59747 13.913 7.7493 13.7264 7.7493H13.4876C13.3282 7.7493 13.1981 7.87669 13.1947 8.03598C13.1763 8.8918 12.8123 9.68696 12.196 10.2176C10.8913 11.3411 9.1091 11.3415 7.80391 10.2176C7.18758 9.68696 6.82355 8.8918 6.8052 8.03598V8.03598ZM11.4913 11.3426V11.529C11.4913 11.7163 11.5389 11.909 11.6259 12.084L9.99992 13.5808L8.37398 12.0841C8.46094 11.909 8.50855 11.7163 8.50855 11.529V11.3426C9.46145 11.7449 10.5194 11.7529 11.4913 11.3426ZM7.90391 12.4477L9.39734 13.8225C9.29059 13.8241 8.45762 14.2215 7.98008 13.4936L7.35473 12.5406L7.90391 12.4477ZM6.5709 12.3568V15.4924H6.02316C5.94848 15.4924 5.87586 15.5018 5.80648 15.5195V12.4896L6.5709 12.3568ZM2.70512 19.0332V15.7818C2.70512 15.1476 2.9059 14.5439 3.28578 14.0361C3.66238 13.5326 4.17898 13.1714 4.78066 12.9907L5.22055 12.9143V16.0392C5.20527 16.0788 5.19215 16.1196 5.18262 16.1621C5.1227 16.4288 4.99949 16.6656 4.81641 16.8657C4.45676 17.259 4.25867 17.7691 4.25867 18.302V19.4141H3.08605C2.87602 19.4141 2.70512 19.2432 2.70512 19.0332V19.0332ZM17.2947 19.0332C17.2947 19.2432 17.1239 19.4141 16.9138 19.4141H15.7412V18.302C15.7412 17.7691 15.5431 17.259 15.1835 16.8657C15.0058 16.6714 14.8838 16.4315 14.8209 16.1525C14.8107 16.1072 14.7965 16.0635 14.7793 16.0215V14.9135C14.7793 14.7517 14.6481 14.6206 14.4863 14.6206C14.3245 14.6206 14.1934 14.7517 14.1934 14.9135V15.5179C14.1274 15.5015 14.059 15.4924 13.989 15.4924H13.4289V12.3569L14.1934 12.4896V13.5477C14.1934 13.7095 14.3245 13.8407 14.4863 13.8407C14.6481 13.8407 14.7793 13.7095 14.7793 13.5477V12.9143L15.2192 12.9907C15.8209 13.1714 16.3375 13.5326 16.7141 14.0361C17.0939 14.5439 17.2947 15.1476 17.2947 15.7818V19.0332Z"/>
</mask>
<path d="M17.1832 13.6851C16.6676 12.9958 15.8405 12.5037 15.3363 12.4163L14.7583 12.316C14.7012 12.1125 14.5321 11.9537 14.3148 11.916L13.4991 11.7743C13.3358 11.7459 13.1694 11.7909 13.0425 11.8977C13.0072 11.9274 12.9766 11.9613 12.95 11.9978L12.1746 11.8668C12.1135 11.7612 12.0771 11.6388 12.0771 11.529V11.034C12.2495 10.9242 12.4168 10.8007 12.5782 10.6616C13.2506 10.0827 13.6734 9.24653 13.7633 8.33454C14.2559 8.31505 14.6506 7.90821 14.6506 7.41094V7.06184C14.6506 6.77993 14.5238 6.51915 14.3104 6.34575V5.56438H14.6653C15.5024 5.56438 16.1834 4.88337 16.1834 4.04626C16.1834 3.81747 15.9973 3.63134 15.7686 3.63134H14.3619L14.1283 1.93391C13.9536 0.664617 12.7482 -0.208235 11.4763 0.0434056C10.4967 0.23739 9.5032 0.23739 8.52348 0.0434056C7.26379 -0.205891 6.04797 0.651999 5.87152 1.93391L5.63789 3.63134H4.23125C4.00246 3.63134 3.81637 3.81747 3.81637 4.04626C3.81637 4.88333 4.49738 5.56438 5.33449 5.56438H5.68941V6.34575C5.47605 6.51915 5.34918 6.77993 5.34918 7.06184V7.41094C5.34918 7.90821 5.74391 8.31505 6.23652 8.33454C6.32637 9.24653 6.74922 10.0827 7.42152 10.6616C7.58297 10.8007 7.75031 10.9242 7.92262 11.034V11.529C7.92262 11.6388 7.88625 11.7612 7.82512 11.8668L7.04973 11.9978C7.0232 11.9613 6.99254 11.9274 6.95723 11.8977C6.83035 11.791 6.66398 11.7459 6.50066 11.7743L5.68492 11.916C5.46762 11.9537 5.29855 12.1125 5.24148 12.316L4.66344 12.4163C4.19227 12.498 3.3552 12.965 2.81652 13.6851C2.36027 14.295 2.11914 15.02 2.11914 15.7818V19.0332C2.11914 19.5663 2.55285 20 3.08598 20H16.9138C17.4469 20 17.8806 19.5663 17.8806 19.0332V15.7818C17.8807 15.0201 17.6395 14.295 17.1832 13.6851V13.6851ZM14.2493 16.2813C14.3337 16.6556 14.5072 16.9945 14.7511 17.2612C15.0118 17.5462 15.1553 17.9158 15.1553 18.302V19.4141H4.84457V18.302C4.84457 17.9157 4.98812 17.5462 5.24875 17.2612C5.50164 16.9847 5.67172 16.6581 5.7543 16.2906C5.78195 16.1676 5.895 16.0783 6.02316 16.0783H13.989C14.1134 16.0783 14.2228 16.1636 14.2493 16.2813V16.2813ZM7.1568 15.4924V13.307L7.49016 13.815C7.78395 14.2629 8.2834 14.5233 8.80418 14.5233C9.1032 14.5233 9.23715 14.4528 9.99988 14.2803C10.7596 14.4521 10.8967 14.5233 11.1956 14.5233C11.7163 14.5233 12.2158 14.2628 12.5096 13.815L12.843 13.307V15.4924H7.1568ZM12.0198 13.4936C11.7928 13.8395 11.37 14.007 10.9679 13.9104L10.6025 13.8225L12.0959 12.4477L12.6451 12.5406L12.0198 13.4936ZM13.7245 6.23657C13.5842 6.26169 13.4109 6.30911 13.2412 6.39841V5.56434H13.7245V6.23657ZM4.41801 4.21723H6.81949C6.98129 4.21723 7.11246 4.0861 7.11246 3.92426C7.11246 3.76243 6.98129 3.6313 6.81949 3.6313H6.22938L6.45203 2.01372C6.5818 1.07083 7.47633 0.433171 8.40977 0.618132C9.46488 0.826999 10.5349 0.82696 11.5901 0.618132C12.5223 0.43364 13.4179 1.06954 13.5479 2.01372L13.7705 3.6313H8.18523C8.02344 3.6313 7.89227 3.76243 7.89227 3.92426C7.89227 4.0861 8.02344 4.21723 8.18523 4.21723H14.1054C14.1056 4.21723 14.1059 4.21727 14.1062 4.21727C14.1064 4.21727 14.1066 4.21723 14.1067 4.21723H15.5818C15.5013 4.64989 15.121 4.97841 14.6654 4.97841C14.3345 4.97841 5.85984 4.97841 5.33441 4.97841C4.87883 4.97841 4.49852 4.64989 4.41801 4.21723V4.21723ZM6.75871 5.56434V6.39841C6.58891 6.30907 6.41566 6.26169 6.27535 6.23657V5.56434H6.75871ZM6.8052 8.03598C6.8018 7.87669 6.67168 7.7493 6.5123 7.7493H6.27352C6.08691 7.7493 5.93512 7.59747 5.93512 7.41091V7.0618C5.93512 6.9577 5.98309 6.862 6.06273 6.79844C6.19414 6.80989 6.4691 6.85524 6.65289 7.03712C6.90797 7.28942 7.34469 7.10903 7.34469 6.74739V5.5643H12.6553V6.74739C12.6553 7.10848 13.0916 7.28985 13.3471 7.03704C13.5308 6.85524 13.8064 6.80977 13.9371 6.79833C14.0168 6.86184 14.0648 6.95766 14.0648 7.0618V7.41091C14.0648 7.59747 13.913 7.7493 13.7264 7.7493H13.4876C13.3282 7.7493 13.1981 7.87669 13.1947 8.03598C13.1763 8.8918 12.8123 9.68696 12.196 10.2176C10.8913 11.3411 9.1091 11.3415 7.80391 10.2176C7.18758 9.68696 6.82355 8.8918 6.8052 8.03598V8.03598ZM11.4913 11.3426V11.529C11.4913 11.7163 11.5389 11.909 11.6259 12.084L9.99992 13.5808L8.37398 12.0841C8.46094 11.909 8.50855 11.7163 8.50855 11.529V11.3426C9.46145 11.7449 10.5194 11.7529 11.4913 11.3426ZM7.90391 12.4477L9.39734 13.8225C9.29059 13.8241 8.45762 14.2215 7.98008 13.4936L7.35473 12.5406L7.90391 12.4477ZM6.5709 12.3568V15.4924H6.02316C5.94848 15.4924 5.87586 15.5018 5.80648 15.5195V12.4896L6.5709 12.3568ZM2.70512 19.0332V15.7818C2.70512 15.1476 2.9059 14.5439 3.28578 14.0361C3.66238 13.5326 4.17898 13.1714 4.78066 12.9907L5.22055 12.9143V16.0392C5.20527 16.0788 5.19215 16.1196 5.18262 16.1621C5.1227 16.4288 4.99949 16.6656 4.81641 16.8657C4.45676 17.259 4.25867 17.7691 4.25867 18.302V19.4141H3.08605C2.87602 19.4141 2.70512 19.2432 2.70512 19.0332V19.0332ZM17.2947 19.0332C17.2947 19.2432 17.1239 19.4141 16.9138 19.4141H15.7412V18.302C15.7412 17.7691 15.5431 17.259 15.1835 16.8657C15.0058 16.6714 14.8838 16.4315 14.8209 16.1525C14.8107 16.1072 14.7965 16.0635 14.7793 16.0215V14.9135C14.7793 14.7517 14.6481 14.6206 14.4863 14.6206C14.3245 14.6206 14.1934 14.7517 14.1934 14.9135V15.5179C14.1274 15.5015 14.059 15.4924 13.989 15.4924H13.4289V12.3569L14.1934 12.4896V13.5477C14.1934 13.7095 14.3245 13.8407 14.4863 13.8407C14.6481 13.8407 14.7793 13.7095 14.7793 13.5477V12.9143L15.2192 12.9907C15.8209 13.1714 16.3375 13.5326 16.7141 14.0361C17.0939 14.5439 17.2947 15.1476 17.2947 15.7818V19.0332Z" fill="#0BCAD4" stroke="#0BCAD4" stroke-width="6" mask="url(#path-3-inside-1)"/>
</g>
<defs>
<clipPath id="clip0">
<rect width="20" height="20" fill="white"/>
</clipPath>
</defs>
</svg>
