<svg width="50" height="50" viewBox="0 0 50 50" fill="none" xmlns="http://www.w3.org/2000/svg">
<circle cx="25" cy="25" r="25" fill="#529D63"/>
<path d="M13.2812 27.3438H27.3438C27.841 27.3438 28.3179 27.5413 28.6696 27.8929C29.0212 28.2446 29.2188 28.7215 29.2188 29.2188V38.5938H11.4062V29.2188C11.4062 28.7215 11.6038 28.2446 11.9554 27.8929C12.3071 27.5413 12.784 27.3438 13.2812 27.3438Z" fill="#EBA72E"/>
<path d="M25.4688 27.3438H27.3438V33.9062H25.4688V27.3438Z" fill="#A36F58"/>
<path d="M13.2812 27.3438H15.1562V33.9062H13.2812V27.3438Z" fill="#A36F58"/>
<path d="M32.9688 21.7188H34.8438V38.5938H32.9688V21.7188Z" fill="#D0D2D4"/>
<path d="M36.7188 11.4063V18.9062H34.8438V12.3438C34.8438 12.0951 34.745 11.8567 34.5692 11.6808C34.3933 11.505 34.1549 11.4063 33.9062 11.4063C33.6576 11.4063 33.4192 11.505 33.2433 11.6808C33.0675 11.8567 32.9688 12.0951 32.9688 12.3438V18.9062H31.0938V11.4063H30.5682C30.3297 11.4062 30.1002 11.4971 29.9264 11.6604C29.7525 11.8237 29.6474 12.0471 29.6325 12.2852L29.2188 18.9062V19.8438C29.2188 20.341 29.4163 20.8179 29.7679 21.1696C30.1196 21.5212 30.5965 21.7188 31.0938 21.7188H36.7188C37.216 21.7188 37.6929 21.5212 38.0446 21.1696C38.3962 20.8179 38.5938 20.341 38.5938 19.8438V18.9062L38.18 12.2852C38.1651 12.0471 38.06 11.8237 37.8861 11.6604C37.7123 11.4971 37.4828 11.4062 37.2443 11.4063H36.7188Z" fill="#C3C6C7"/>
<path d="M32.9688 32.0312H34.8438V38.5938H32.9688V32.0312Z" fill="#B6B9BA"/>
<path d="M13.2812 33.9062H27.3438V38.5938H13.2812V33.9062Z" fill="#A36F58"/>
<path d="M14.2188 24.0625C15.2543 24.0625 16.0938 23.223 16.0938 22.1875C16.0938 21.152 15.2543 20.3125 14.2188 20.3125C13.1832 20.3125 12.3438 21.152 12.3438 22.1875C12.3438 23.223 13.1832 24.0625 14.2188 24.0625Z" fill="#F0C6A4"/>
<path d="M26.4062 24.0625C27.4418 24.0625 28.2812 23.223 28.2812 22.1875C28.2812 21.152 27.4418 20.3125 26.4062 20.3125C25.3707 20.3125 24.5312 21.152 24.5312 22.1875C24.5312 23.223 25.3707 24.0625 26.4062 24.0625Z" fill="#F0C6A4"/>
<path d="M26.4062 20.7812C26.4062 17.4158 23.678 14.6875 20.3125 14.6875C16.947 14.6875 14.2188 17.4158 14.2188 20.7812V21.7188C14.2188 25.0842 16.947 27.8125 20.3125 27.8125C23.678 27.8125 26.4062 25.0842 26.4062 21.7188V20.7812Z" fill="#F7CCA9"/>
<path d="M17.5 36.7188H23.125V38.5938H17.5V36.7188Z" fill="#D49073"/>
<path d="M26.4062 17.9688H14.2188L15.0163 12.386C15.0977 11.8186 15.4856 11.4062 15.9387 11.4062H24.6863C25.1394 11.4062 25.5276 11.8186 25.6087 12.386L26.4062 17.9688Z" fill="#D49073"/>
<path d="M26.4062 17.9688H14.2188L14.4865 16.0938H26.1385L26.4062 17.9688Z" fill="#D13330"/>
<path d="M14.2765 17.9688H26.3485C26.7667 17.9687 27.1729 18.1085 27.5025 18.3659C27.832 18.6232 28.0662 18.9833 28.1676 19.389L28.2812 19.8438H12.3438L12.4574 19.389C12.5588 18.9833 12.793 18.6232 13.1225 18.3659C13.4521 18.1085 13.8583 17.9687 14.2765 17.9688Z" fill="#D49073"/>
<path d="M24.7762 26.3576C24.9747 25.989 25.0442 25.5645 24.9735 25.1519C24.9028 24.7392 24.696 24.3621 24.386 24.0806C24.0761 23.7991 23.6809 23.6294 23.2633 23.5986C22.8458 23.5678 22.4299 23.6776 22.0821 23.9106C21.9535 23.544 21.7142 23.2263 21.3972 23.0016C21.0802 22.7768 20.7013 22.6561 20.3127 22.6561C19.9242 22.6561 19.5452 22.7768 19.2282 23.0016C18.9113 23.2263 18.6719 23.544 18.5434 23.9106C18.1955 23.6775 17.7796 23.5675 17.3619 23.5982C16.9443 23.6289 16.5489 23.7986 16.2389 24.0801C15.9289 24.3617 15.7221 24.7389 15.6514 25.1516C15.5807 25.5644 15.6502 25.989 15.8489 26.3576C15.515 26.6291 15.2846 27.0072 15.1965 27.4284C15.1083 27.8497 15.1678 28.2884 15.3649 28.671C15.5619 29.0536 15.8846 29.3567 16.2787 29.5295C16.6728 29.7024 17.1144 29.7344 17.5293 29.6202C17.6262 30.2893 17.9608 30.9012 18.472 31.3437C18.9832 31.7862 19.6367 32.0298 20.3128 32.0298C20.9889 32.0298 21.6424 31.7862 22.1536 31.3437C22.6648 30.9012 22.9995 30.2893 23.0963 29.6202C23.5112 29.7341 23.9526 29.702 24.3466 29.5291C24.7406 29.3561 25.0631 29.053 25.26 28.6705C25.457 28.288 25.5164 27.8494 25.4283 27.4283C25.3402 27.0071 25.11 26.6291 24.7762 26.3576Z" fill="#95573A"/>
<path d="M38.6478 12.2559C38.6248 11.899 38.467 11.5643 38.2064 11.3195C37.9458 11.0746 37.6018 10.9381 37.2443 10.9375H36.7188C36.5944 10.9375 36.4752 10.9869 36.3873 11.0748C36.2994 11.1627 36.25 11.2819 36.25 11.4062V18.4375H35.3125V12.3438C35.3125 11.9708 35.1643 11.6131 34.9006 11.3494C34.6369 11.0857 34.2792 10.9375 33.9062 10.9375C33.5333 10.9375 33.1756 11.0857 32.9119 11.3494C32.6482 11.6131 32.5 11.9708 32.5 12.3438V18.4375H31.5625V11.4062C31.5625 11.2819 31.5131 11.1627 31.4252 11.0748C31.3373 10.9869 31.2181 10.9375 31.0938 10.9375H30.5682C30.2107 10.9381 29.8667 11.0746 29.6061 11.3195C29.3455 11.5643 29.1877 11.899 29.1647 12.2559L28.7509 18.877C28.7503 18.8867 28.75 18.8965 28.75 18.9062V19.8438C28.7507 20.4651 28.9979 21.0609 29.4372 21.5003C29.8766 21.9396 30.4724 22.1868 31.0938 22.1875H32.5V38.5938C32.5 38.7181 32.5494 38.8373 32.6373 38.9252C32.7252 39.0131 32.8444 39.0625 32.9688 39.0625H34.8438C34.9681 39.0625 35.0873 39.0131 35.1752 38.9252C35.2631 38.8373 35.3125 38.7181 35.3125 38.5938V22.1875H36.7188C37.3401 22.1868 37.9359 21.9396 38.3753 21.5003C38.8146 21.0609 39.0618 20.4651 39.0625 19.8438V18.9062C39.0625 18.8965 39.0625 18.8867 39.0616 18.877L38.6478 12.2559ZM34.375 38.125H33.4375V32.5H34.375V38.125ZM34.375 31.5625H33.4375V22.1875H34.375V31.5625ZM38.125 19.8438C38.1246 20.2166 37.9763 20.574 37.7126 20.8376C37.449 21.1013 37.0916 21.2496 36.7188 21.25H31.0938C30.7209 21.2496 30.3635 21.1013 30.0999 20.8376C29.8362 20.574 29.6879 20.2166 29.6875 19.8438V18.9209L30.1004 12.3145C30.1081 12.1955 30.1606 12.0839 30.2475 12.0023C30.3344 11.9207 30.449 11.8752 30.5682 11.875H30.625V18.9062C30.625 19.0306 30.6744 19.1498 30.7623 19.2377C30.8502 19.3256 30.9694 19.375 31.0938 19.375H32.9688C33.0931 19.375 33.2123 19.3256 33.3002 19.2377C33.3881 19.1498 33.4375 19.0306 33.4375 18.9062V12.3438C33.4375 12.2194 33.4869 12.1002 33.5748 12.0123C33.6627 11.9244 33.7819 11.875 33.9062 11.875C34.0306 11.875 34.1498 11.9244 34.2377 12.0123C34.3256 12.1002 34.375 12.2194 34.375 12.3438V18.9062C34.375 19.0306 34.4244 19.1498 34.5123 19.2377C34.6002 19.3256 34.7194 19.375 34.8438 19.375H36.7188C36.8431 19.375 36.9623 19.3256 37.0502 19.2377C37.1381 19.1498 37.1875 19.0306 37.1875 18.9062V11.875H37.2443C37.3635 11.8752 37.4781 11.9207 37.565 12.0023C37.6519 12.0839 37.7044 12.1955 37.7121 12.3145L38.125 18.9209V19.8438Z" fill="black"/>
<path d="M11.4062 39.0625H29.2188C29.3431 39.0625 29.4623 39.0131 29.5502 38.9252C29.6381 38.8373 29.6875 38.7181 29.6875 38.5938V29.2188C29.6868 28.5974 29.4396 28.0016 29.0003 27.5622C28.5609 27.1229 27.9651 26.8757 27.3438 26.875H25.7426C25.6421 26.6446 25.5049 26.4319 25.3365 26.2453C25.3945 26.0792 25.4337 25.9072 25.4533 25.7324L25.4854 25.7574C25.7824 25.3777 26.0368 24.9665 26.2441 24.5312H26.4062C26.8983 24.5314 27.3779 24.3767 27.777 24.089C28.1762 23.8013 28.4746 23.3953 28.63 22.9284C28.7855 22.4616 28.79 21.9577 28.6429 21.4882C28.4959 21.0186 28.2048 20.6073 27.8109 20.3125H28.2812C28.3525 20.3125 28.4228 20.2963 28.4868 20.265C28.5508 20.2338 28.6069 20.1884 28.6507 20.1322C28.6945 20.0761 28.725 20.0107 28.7398 19.941C28.7546 19.8713 28.7533 19.7992 28.736 19.7301L28.6223 19.2754C28.5156 18.8466 28.2896 18.4568 27.9706 18.1511C27.6516 17.8453 27.2526 17.6362 26.8196 17.5478L26.0728 12.3197C25.9583 11.5188 25.375 10.9375 24.6863 10.9375H15.9387C15.25 10.9375 14.6667 11.5188 14.5523 12.3197L13.8054 17.5478C13.3724 17.6361 12.9734 17.8453 12.6543 18.151C12.3353 18.4568 12.1094 18.8466 12.0027 19.2754L11.889 19.7301C11.8717 19.7992 11.8705 19.8714 11.8852 19.941C11.9 20.0107 11.9305 20.0761 11.9743 20.1322C12.0182 20.1884 12.0742 20.2338 12.1382 20.265C12.2022 20.2963 12.2725 20.3125 12.3438 20.3125H12.8141C12.4202 20.6073 12.1291 21.0186 11.9821 21.4882C11.835 21.9577 11.8395 22.4616 11.995 22.9284C12.1504 23.3953 12.4488 23.8013 12.848 24.089C13.2471 24.3767 13.7267 24.5314 14.2188 24.5312H14.3809C14.5882 24.9665 14.8426 25.3777 15.1396 25.7574L15.1717 25.7324C15.1913 25.9072 15.2305 26.0792 15.2885 26.2453C15.1201 26.4319 14.9829 26.6446 14.8824 26.875H13.2812C12.6599 26.8757 12.0641 27.1229 11.6247 27.5622C11.1854 28.0016 10.9382 28.5974 10.9375 29.2188V38.5938C10.9375 38.7181 10.9869 38.8373 11.0748 38.9252C11.1627 39.0131 11.2819 39.0625 11.4062 39.0625ZM27.8125 27.8931C28.0865 27.9903 28.3236 28.1699 28.4915 28.4073C28.6593 28.6446 28.7496 28.9281 28.75 29.2188V38.125H27.8125V27.8931ZM22.6562 38.125H17.9688V37.1875H22.6562V38.125ZM25.9375 27.8125H26.875V33.4375H25.9375V27.8125ZM27.8125 22.1875C27.8121 22.5252 27.6903 22.8514 27.4695 23.1068C27.2486 23.3622 26.9433 23.5298 26.6093 23.5789C26.7864 22.9748 26.8759 22.3483 26.875 21.7188V20.8619C27.149 20.9591 27.3861 21.1387 27.554 21.376C27.7218 21.6134 27.8121 21.8968 27.8125 22.1875ZM15.4803 12.4523C15.5266 12.1285 15.7279 11.875 15.9387 11.875H24.6863C24.8973 11.875 25.0984 12.1285 25.1447 12.4523L25.5979 15.625H15.0273L15.4803 12.4523ZM14.8932 16.5625H25.7318L25.8658 17.5H14.7592L14.8932 16.5625ZM12.8125 22.1875C12.8129 21.8968 12.9032 21.6134 13.071 21.376C13.2389 21.1387 13.476 20.9591 13.75 20.8619V21.7188C13.7491 22.3483 13.8386 22.9748 14.0157 23.5789C13.6817 23.5297 13.3764 23.3622 13.1556 23.1068C12.9347 22.8514 12.813 22.5251 12.8125 22.1875ZM12.9505 19.375C13.0472 19.1006 13.2267 18.863 13.4642 18.6951C13.7017 18.5272 13.9856 18.4371 14.2765 18.4375H26.3486C26.6395 18.4372 26.9233 18.5272 27.1608 18.6952C27.3983 18.8631 27.5778 19.1006 27.6745 19.375H12.9505ZM14.6875 21.7188V20.3125H25.9375V21.7188C25.9404 22.6732 25.698 23.6124 25.2335 24.4462C24.9778 23.9193 24.5342 23.5072 23.9899 23.2909C23.4457 23.0745 22.8402 23.0697 22.2926 23.2773C22.0809 22.9437 21.7884 22.669 21.4423 22.4785C21.0962 22.288 20.7076 22.1879 20.3125 22.1875V21.7188C20.3125 21.5944 20.2631 21.4752 20.1752 21.3873C20.0873 21.2994 19.9681 21.25 19.8438 21.25C19.7194 21.25 19.6002 21.2994 19.5123 21.3873C19.4244 21.4752 19.375 21.5944 19.375 21.7188V22.3848C18.9464 22.572 18.5834 22.8827 18.3324 23.2773C17.7848 23.0697 17.1793 23.0746 16.6351 23.2909C16.0908 23.5072 15.6472 23.9193 15.3915 24.4462C14.927 23.6124 14.6846 22.6732 14.6875 21.7188ZM23.5938 29.2188C23.4675 29.2187 23.3419 29.2017 23.2202 29.1682C23.156 29.1506 23.0888 29.1469 23.0231 29.1572C22.9574 29.1676 22.8946 29.1918 22.839 29.2282C22.7834 29.2647 22.7361 29.3126 22.7004 29.3688C22.6648 29.4249 22.6414 29.488 22.632 29.5538C22.5512 30.1113 22.2722 30.6211 21.8463 30.9897C21.4203 31.3584 20.8758 31.5613 20.3125 31.5613C19.7492 31.5613 19.2047 31.3584 18.7787 30.9897C18.3528 30.6211 18.0738 30.1113 17.993 29.5538C17.9836 29.488 17.9602 29.4249 17.9246 29.3688C17.8889 29.3126 17.8416 29.2647 17.786 29.2282C17.7304 29.1918 17.6676 29.1676 17.6019 29.1572C17.5362 29.1469 17.469 29.1506 17.4048 29.1682C17.0936 29.2539 16.7624 29.2299 16.4668 29.1002C16.1712 28.9706 15.9292 28.7432 15.7815 28.4562C15.6337 28.1693 15.5891 27.8402 15.6553 27.5243C15.7214 27.2084 15.8942 26.9248 16.1447 26.7212C16.2292 26.6524 16.2872 26.5562 16.3085 26.4492C16.3298 26.3423 16.3131 26.2312 16.2614 26.1353C16.1505 25.9307 16.0929 25.7015 16.0938 25.4688C16.0937 25.214 16.1629 24.9641 16.2939 24.7456C16.4249 24.5271 16.6128 24.3483 16.8375 24.2283C17.0621 24.1083 17.3152 24.0516 17.5696 24.0642C17.8241 24.0768 18.0703 24.1583 18.282 24.2999C18.3414 24.3398 18.4092 24.3655 18.4802 24.3751C18.5511 24.3847 18.6233 24.378 18.6912 24.3553C18.7591 24.3327 18.821 24.2948 18.872 24.2446C18.923 24.1944 18.9618 24.1331 18.9855 24.0655C19.0819 23.7905 19.2613 23.5521 19.4991 23.3835C19.7368 23.2149 20.0211 23.1243 20.3126 23.1243C20.6041 23.1243 20.8884 23.2149 21.1261 23.3835C21.3639 23.5521 21.5434 23.7905 21.6398 24.0655C21.6634 24.1331 21.7022 24.1944 21.7533 24.2446C21.8043 24.2948 21.8661 24.3327 21.934 24.3553C22.0019 24.378 22.0741 24.3847 22.1451 24.3751C22.216 24.3655 22.2838 24.3398 22.3432 24.2999C22.6041 24.1252 22.916 24.0429 23.2291 24.066C23.5423 24.0891 23.8387 24.2163 24.0711 24.4274C24.3036 24.6385 24.4587 24.9213 24.5117 25.2308C24.5648 25.5403 24.5127 25.8586 24.3638 26.1351C24.3121 26.2311 24.2955 26.3421 24.3168 26.4491C24.3381 26.556 24.396 26.6522 24.4806 26.721C24.706 26.9042 24.8693 27.1527 24.9478 27.4324C25.0263 27.7121 25.0163 28.0092 24.9191 28.283C24.8219 28.5568 24.6423 28.7937 24.405 28.9613C24.1676 29.1288 23.8843 29.2188 23.5938 29.2188ZM25 29.6862V33.4375H20.7812V32.4653C21.4008 32.3731 21.9813 32.1067 22.4553 31.6972C22.9292 31.2877 23.277 30.7519 23.458 30.1523C23.5032 30.1549 23.5485 30.1562 23.5938 30.1562C24.1012 30.1568 24.5949 29.9918 25 29.6862ZM19.8438 32.4653V33.4375H15.625V29.6862C16.0301 29.9918 16.5238 30.1568 17.0312 30.1562C17.0765 30.1562 17.1218 30.1549 17.167 30.1523C17.348 30.7519 17.6958 31.2877 18.1697 31.6972C18.6437 32.1067 19.2242 32.3731 19.8438 32.4653ZM13.75 27.8125H14.6875V33.4375H13.75V27.8125ZM13.75 34.375H26.875V38.125H23.5938V36.7188C23.5938 36.5944 23.5444 36.4752 23.4565 36.3873C23.3685 36.2994 23.2493 36.25 23.125 36.25H17.5C17.3757 36.25 17.2565 36.2994 17.1685 36.3873C17.0806 36.4752 17.0312 36.5944 17.0312 36.7188V38.125H13.75V34.375ZM11.875 29.2188C11.8754 28.9281 11.9657 28.6446 12.1335 28.4073C12.3014 28.1699 12.5385 27.9903 12.8125 27.8931V38.125H11.875V29.2188Z" fill="black"/>
<path d="M22.6562 22.1875C22.9151 22.1875 23.125 21.9776 23.125 21.7188C23.125 21.4599 22.9151 21.25 22.6562 21.25C22.3974 21.25 22.1875 21.4599 22.1875 21.7188C22.1875 21.9776 22.3974 22.1875 22.6562 22.1875Z" fill="black"/>
<path d="M17.9688 22.1875C18.2276 22.1875 18.4375 21.9776 18.4375 21.7188C18.4375 21.4599 18.2276 21.25 17.9688 21.25C17.7099 21.25 17.5 21.4599 17.5 21.7188C17.5 21.9776 17.7099 22.1875 17.9688 22.1875Z" fill="black"/>
<path d="M21.25 25H19.375C19.2507 25 19.1315 25.0494 19.0435 25.1373C18.9556 25.2252 18.9062 25.3444 18.9062 25.4688C18.9062 25.5931 18.9556 25.7123 19.0435 25.8002C19.1315 25.8881 19.2507 25.9375 19.375 25.9375H21.25C21.3743 25.9375 21.4935 25.8881 21.5815 25.8002C21.6694 25.7123 21.7188 25.5931 21.7188 25.4688C21.7188 25.3444 21.6694 25.2252 21.5815 25.1373C21.4935 25.0494 21.3743 25 21.25 25Z" fill="black"/>
</svg>
