<svg width="50" height="50" viewBox="0 0 50 50" fill="none" xmlns="http://www.w3.org/2000/svg">
<circle cx="25" cy="25" r="25" fill="#529D63"/>
<g clip-path="url(#clip0)">
<path d="M34.1111 38.4141V33.0138C34.1111 31.5465 33.1744 30.2431 31.7837 29.7751L30.7003 29.4106L29.8214 29.509L28.9425 28.8191L26.8385 28.1112C26.3749 27.9552 26.0627 27.5207 26.0627 27.0316V25.1767H20.9939V27.0316C20.9939 27.5207 20.6817 27.9552 20.2182 28.1112L18.1142 28.8191L17.2687 29.7206L16.3564 29.4106L15.2729 29.7751C13.8822 30.2431 12.9455 31.5465 12.9455 33.0138V38.4141C12.9455 38.7377 13.2078 39 13.5314 39H16.3564L23.4477 38.1211L30.7003 39H33.5252C33.8488 39 34.1111 38.7377 34.1111 38.4141V38.4141Z" fill="#BEE49D"/>
<path d="M31.7838 29.7751L30.7003 29.4106L29.8214 29.509L28.9425 28.8191L26.8385 28.1112C26.375 27.9552 26.0627 27.5207 26.0627 27.0316V25.1767H24.3049V27.9105C24.3049 28.3996 24.6172 28.8341 25.0807 28.9901L30.026 30.654C31.4166 31.122 32.3534 32.4255 32.3534 33.8927V39H33.5252C33.8489 39 34.1112 38.7377 34.1112 38.4141V33.0138C34.1111 31.5465 33.1744 30.2431 31.7838 29.7751V29.7751Z" fill="#A3D8A4"/>
<path d="M23.5282 30.1399C25.1299 30.1399 26.5712 29.4534 27.5743 28.3588L25.9594 28.1112C25.4959 27.9552 25.1836 27.5207 25.1836 27.0316V25.1767H20.9938V27.0316C20.9938 27.5207 20.6816 27.9552 20.2181 28.1112L19.4821 28.3588C20.4852 29.4534 21.9265 30.1399 23.5282 30.1399Z" fill="#F1CCBD"/>
<path d="M26.0627 25.1767H24.3049V27.9105C24.3049 28.3996 24.6172 28.8341 25.0807 28.9901L26.2878 29.3963C26.7677 29.1164 27.2015 28.7659 27.5745 28.3589C27.2105 28.2188 26.743 28.1349 26.4665 27.9009C26.2157 27.6887 26.0628 27.374 26.0627 27.0316V25.1767Z" fill="#EAAD9C"/>
<path d="M23.5282 26.9957C23.5282 26.9957 21.7556 27.1545 20.9937 26.7703C19.1535 25.8424 17.8914 23.9356 17.8914 21.7341V18.3023H29.1649V21.7341C29.1649 23.9357 27.9028 25.8424 26.0627 26.7703C25.3008 27.1545 24.4397 26.9957 23.5282 26.9957V26.9957Z" fill="#F1CCBD"/>
<path d="M27.4072 18.3023V21.7341C27.4191 22.1149 27.4367 23.9555 26.0391 25.4153C24.7793 26.7312 22.8458 27.2402 20.9938 26.77C21.4087 26.977 22.0751 27.2488 22.9359 27.34C22.9359 27.34 23.2393 27.3709 23.5282 27.3709C26.6413 27.3709 29.165 24.8473 29.165 21.7342V18.3023H27.4072V18.3023Z" fill="#EAAD9C"/>
<path d="M29.551 20.7972H29.1649V18.6159H29.551C30.1534 18.6159 30.6417 19.1043 30.6417 19.7065C30.6417 20.3089 30.1534 20.7972 29.551 20.7972Z" fill="#F1CCBD"/>
<path d="M17.5054 20.7972H17.8915V18.6159H17.5054C16.9031 18.6159 16.4148 19.1043 16.4148 19.7065C16.4148 20.3089 16.9031 20.7972 17.5054 20.7972Z" fill="#EAAD9C"/>
<path d="M31.107 18.616H15.7881C15.0641 18.616 14.4772 18.0291 14.4772 17.3051C14.4772 16.5811 15.0641 15.9942 15.7881 15.9942H31.1071C31.8311 15.9942 32.418 16.5811 32.418 17.3051C32.418 18.0291 31.8311 18.616 31.107 18.616Z" fill="#CE9775"/>
<path d="M31.1071 15.9941H29.3493C30.0733 15.9941 30.6602 16.581 30.6602 17.305C30.6602 18.029 30.0733 18.6159 29.3493 18.6159H31.1071C31.8311 18.6159 32.418 18.029 32.418 17.305C32.4181 16.581 31.8312 15.9941 31.1071 15.9941Z" fill="#C6855B"/>
<path d="M23.5282 9.43945C20.5115 9.43945 18.066 11.885 18.066 14.9017V15.9941H28.9904V14.9017C28.9904 11.885 26.5449 9.43945 23.5282 9.43945V9.43945Z" fill="#D7AA8B"/>
<path d="M23.5283 9.43945C23.229 9.43945 22.9355 9.46389 22.6494 9.51018C25.2481 9.93059 27.2327 12.1842 27.2327 14.9017V15.9941H28.9905V14.9017C28.9905 11.885 26.545 9.43945 23.5283 9.43945V9.43945Z" fill="#CE9775"/>
<path d="M34.6879 29.1315C34.6734 29.1315 34.6588 29.1307 34.6441 29.1293C34.4025 29.1054 34.2261 28.8902 34.25 28.6487C34.2644 28.5036 34.3074 27.7498 33.7405 27.1514C33.2242 26.6063 32.5627 26.5596 32.3537 26.5596C32.3481 26.5596 32.343 26.5597 32.3383 26.5596C32.0973 26.5596 31.9009 26.3654 31.8989 26.1239C31.8968 25.8812 32.0919 25.6828 32.3346 25.6807C32.6208 25.6774 33.6082 25.7336 34.3787 26.547C35.1874 27.4008 35.1541 28.4378 35.1247 28.7353C35.1022 28.9621 34.9111 29.1315 34.6879 29.1315V29.1315Z" fill="#BEE49D"/>
<path d="M34.7053 29.1315C34.4821 29.1315 34.2911 28.9621 34.2685 28.7354C34.2389 28.438 34.2053 27.4012 35.0144 26.547C35.7703 25.749 36.7365 25.6806 37.0416 25.6806C37.0475 25.6806 37.0531 25.6806 37.0585 25.6807C37.3012 25.6827 37.4963 25.8812 37.4942 26.1239C37.4922 26.3652 37.2958 26.5596 37.0548 26.5596C37.05 26.5596 37.0449 26.5595 37.0394 26.5595C36.8305 26.5595 36.169 26.6062 35.6526 27.1514C35.0855 27.7501 35.1287 28.5035 35.1431 28.6485C35.1671 28.89 34.9908 29.1053 34.7493 29.1292C34.7345 29.1307 34.7198 29.1315 34.7053 29.1315V29.1315Z" fill="#BEE49D"/>
<path d="M34.6964 29.1314C34.4537 29.1314 34.257 28.9347 34.257 28.6919V25.519C34.257 25.2762 34.4537 25.0795 34.6964 25.0795C34.9392 25.0795 35.1359 25.2762 35.1359 25.519V28.6919C35.1359 28.9347 34.9392 29.1314 34.6964 29.1314Z" fill="#A3D8A4"/>
<path d="M35.3118 37.1847H34.2147C33.7061 35.9161 33.188 34.2203 32.9954 32.1883C32.8872 31.0467 32.9009 30.0023 32.9773 29.0821C33.0329 28.4125 33.5932 27.8978 34.2651 27.8978H35.1785C35.8832 27.8978 36.4553 28.4623 36.4704 29.1668C36.4984 30.471 36.4263 31.9406 36.1742 33.5355C35.9608 34.8854 35.6529 36.107 35.3118 37.1847Z" fill="#EBB780"/>
<path d="M36.4703 29.1668C36.4552 28.4623 35.883 27.8977 35.1784 27.8977H34.265C34.1172 27.8977 33.9754 27.9239 33.8427 27.9698C34.3405 28.1425 34.7005 28.6103 34.7125 29.1668C34.7404 30.471 34.6684 31.9404 34.4163 33.5354C34.2663 34.4844 34.0695 35.3695 33.8475 36.1861C33.9672 36.5431 34.0912 36.8767 34.2147 37.1847H35.3117C35.6528 36.107 35.9607 34.8854 36.1741 33.5354C36.4262 31.9405 36.4982 30.471 36.4703 29.1668Z" fill="#E8A661"/>
<path d="M32.9263 30.6656C32.9236 30.6656 32.921 30.666 32.9184 30.666C32.9205 30.9509 32.93 31.244 32.9474 31.5445H34.1111C34.3538 31.5445 34.5505 31.3478 34.5505 31.1051C34.5505 30.8623 34.3538 30.6656 34.1111 30.6656H32.9263Z" fill="#EFC89C"/>
<path d="M35.3808 38.5605H32.9634C32.5887 38.5605 32.2848 38.2567 32.2848 37.8819V34.5349C32.2848 34.1601 32.5886 33.8562 32.9634 33.8562H35.3808C36.2691 33.8562 36.989 34.5762 36.989 35.4645V36.9523C36.989 37.8405 36.2691 38.5605 35.3808 38.5605Z" fill="#F1CCBD"/>
<path d="M35.3807 33.8563H33.6229C34.5111 33.8563 35.2311 34.5764 35.2311 35.4645V36.9523C35.2311 37.8405 34.5111 38.5606 33.6229 38.5606H35.3807C36.269 38.5606 36.989 37.8405 36.989 36.9523V35.4645C36.989 34.5764 36.269 33.8563 35.3807 33.8563Z" fill="#EAAD9C"/>
<path d="M30.7004 39V29.4105L28.9426 28.8191V31.5892C28.9426 32.2365 28.4179 32.7611 27.7707 32.7611H19.2861C18.6389 32.7611 18.1143 32.2365 18.1143 31.5892V28.8191L16.3564 29.4105V39H30.7004Z" fill="#D9F0A0"/>
<path d="M30.7002 29.4105L28.9424 28.8191V30.2895L30.0258 30.654C30.265 30.7345 30.4903 30.8402 30.7002 30.9667V29.4105Z" fill="#D4E898"/>
<path d="M30.7002 33.5433C30.4575 33.5433 30.2608 33.74 30.2608 33.9828V38.5605C30.2608 38.8033 30.4575 39 30.7002 39C30.943 39 31.1397 38.8033 31.1397 38.5605V33.9828C31.1397 33.74 30.943 33.5433 30.7002 33.5433ZM36.5758 33.8034C36.5871 33.7358 36.5979 33.6693 36.6082 33.6041C36.7467 32.7245 36.9325 30.2703 36.9094 29.1576C36.8916 28.2988 36.2376 27.5872 35.4087 27.4743C35.4738 27.3646 35.5537 27.2557 35.6524 27.1514C36.1688 26.6062 36.8303 26.5596 37.0393 26.5596C37.2847 26.5596 37.4919 26.3761 37.4941 26.1239C37.4963 25.8697 37.2902 25.6806 37.0415 25.6806C36.7525 25.6806 35.8706 25.7423 35.1359 26.427V25.5188C35.1359 25.276 34.9392 25.0793 34.6965 25.0793C34.4537 25.0793 34.257 25.276 34.257 25.5188V26.427C33.5075 25.7285 32.6059 25.6776 32.3345 25.6808C32.0918 25.6828 31.8968 25.8813 31.8988 26.124C31.9009 26.3754 32.1065 26.5596 32.3536 26.5596C32.5626 26.5596 33.2241 26.6063 33.7405 27.1515C33.8413 27.2579 33.9225 27.3693 33.9883 27.4812C33.2196 27.6076 32.6056 28.2491 32.5393 29.0457C32.5238 29.2328 32.5116 29.4204 32.502 29.6082C32.3171 29.51 32.1244 29.426 31.9238 29.3585L26.9785 27.6945C26.6936 27.5987 26.5021 27.3323 26.5021 27.0317V27.0313C28.3522 25.9886 29.6046 24.0051 29.6046 21.7342V21.2354C30.4236 21.2071 31.0812 20.5324 31.0812 19.7067C31.0812 19.4739 31.0287 19.2532 30.9353 19.0555C31.9476 19.1122 32.8574 18.3575 32.8574 17.3051C32.8574 16.34 32.0722 15.5548 31.107 15.5548H29.4299V14.9017C29.4299 11.6475 26.7825 9 23.5282 9C20.274 9 17.6266 11.6475 17.6266 14.9017V15.5547H15.7881C14.8229 15.5547 14.0377 16.3399 14.0377 17.3051C14.0377 18.3708 15.0447 19.2202 16.1211 19.0554C16.0277 19.2532 15.9752 19.4739 15.9752 19.7066C15.9752 20.5325 16.6331 21.2073 17.4522 21.2354V21.7342C17.4522 24.0048 18.7044 25.9881 20.5542 27.0309V27.0316C20.5542 27.3322 20.3627 27.5986 20.0777 27.6945L15.1323 29.3585C13.5613 29.8874 12.5057 31.3566 12.5057 33.0141V38.5605C12.5057 38.8033 12.7025 39 12.9452 39C13.1879 39 13.3846 38.8033 13.3846 38.5605V33.0141C13.3846 31.7343 14.1997 30.5999 15.4127 30.1915L15.9168 30.0219V38.5605C15.9168 38.8033 16.1135 39 16.3562 39C16.5989 39 16.7957 38.8033 16.7957 38.5605V29.7263L17.6746 29.4305V31.5892C17.6746 32.4776 18.3974 33.2005 19.2859 33.2005H27.7705C28.6589 33.2005 29.3818 32.4776 29.3818 31.5892V29.4305L30.2607 29.7263V31.932C30.2607 32.1748 30.4574 32.3715 30.7002 32.3715C30.9429 32.3715 31.1396 32.1748 31.1396 31.932V30.022L31.6435 30.1915C31.9454 30.2931 32.2253 30.4412 32.4789 30.6313C32.4843 31.5755 32.5626 32.5113 32.7157 33.4454C32.2181 33.5585 31.8451 34.0037 31.8451 34.5349V37.8819C31.8451 38.4984 32.3468 39 32.9632 39H35.3806C36.5097 39 37.4283 38.0814 37.4283 36.9523V35.4645C37.4284 34.7813 37.0917 34.1756 36.5758 33.8034V33.8034ZM29.6046 20.3556V19.0576C29.9388 19.0849 30.2023 19.3655 30.2023 19.7066C30.2023 20.0477 29.9387 20.3283 29.6046 20.3556V20.3556ZM17.452 20.3556C17.1178 20.3285 16.8541 20.0477 16.8541 19.7066C16.8541 19.3655 17.1178 19.0848 17.452 19.0576V20.3556ZM17.8917 18.1764C17.891 18.1764 17.8902 18.1765 17.8894 18.1765H15.7881C15.3076 18.1765 14.9166 17.7855 14.9166 17.305C14.9166 16.8245 15.3075 16.4336 15.7881 16.4336H19.822C20.0647 16.4336 20.2614 16.2369 20.2614 15.9941C20.2614 15.7513 20.0647 15.5546 19.822 15.5546H18.5055V14.9016C18.5055 12.1321 20.7587 9.87885 23.5283 9.87885C26.2978 9.87885 28.551 12.1321 28.551 14.9016V15.5546H21.8728C21.6301 15.5546 21.4333 15.7513 21.4333 15.9941C21.4333 16.2369 21.6301 16.4336 21.8728 16.4336H31.1071C31.5876 16.4336 31.9785 16.8245 31.9785 17.305C31.9785 17.7855 31.5876 18.1765 31.1071 18.1765H29.1675C29.1667 18.1765 29.166 18.1764 29.1652 18.1764C29.1644 18.1764 29.1636 18.1765 29.1629 18.1765H17.894C17.8933 18.1765 17.8925 18.1764 17.8917 18.1764V18.1764ZM18.3312 21.7342V19.0554H28.7255L28.7257 21.7342C28.7257 24.5999 26.3942 26.9314 23.5285 26.9314C20.6627 26.9314 18.3312 24.5999 18.3312 21.7342V21.7342ZM21.3844 27.4194C22.0515 27.6718 22.774 27.8104 23.5284 27.8104C24.2826 27.8104 25.005 27.6718 25.6719 27.4195C25.806 27.9489 26.2065 28.3771 26.7434 28.5426C25.8441 29.2847 24.7052 29.7004 23.5282 29.7004C22.3511 29.7004 21.2123 29.2847 20.3129 28.5426C20.8459 28.3716 21.2518 27.951 21.3844 27.4194ZM28.5029 31.5892C28.5029 31.9931 28.1744 32.3216 27.7705 32.3216H19.286C18.8821 32.3216 18.5535 31.9931 18.5535 31.5892V29.1346L19.3587 28.8637C20.4643 29.9573 21.9677 30.5793 23.5283 30.5793C25.0887 30.5793 26.5921 29.9573 27.6977 28.8637L28.5029 29.1347V31.5892ZM33.4152 29.1183C33.4512 28.6851 33.8169 28.3453 34.2508 28.3378C34.2622 28.4886 34.2546 28.6013 34.2499 28.6487C34.2246 28.9048 34.4285 29.1315 34.6878 29.1315C34.9515 29.1315 35.1692 28.9124 35.143 28.6485C35.1382 28.601 35.1306 28.4882 35.1421 28.3371C35.6209 28.3143 36.0203 28.6952 36.0307 29.1763C36.0331 29.2871 36.0333 29.3981 36.0342 29.509H35.2856C35.0428 29.509 34.8461 29.7057 34.8461 29.9485C34.8461 30.1912 35.0428 30.3879 35.2856 30.3879H36.0251C36.0113 30.8664 35.984 31.345 35.9418 31.8223H35.2856C35.0428 31.8223 34.8461 32.019 34.8461 32.2617C34.8461 32.5045 35.0428 32.7012 35.2856 32.7012H35.847C35.8157 32.9513 35.7817 33.2009 35.7427 33.4495C35.6251 33.4284 35.5043 33.4168 35.3807 33.4168H33.6019C33.5296 32.9937 33.4726 32.5681 33.433 32.1469C33.414 31.9468 33.3995 31.7458 33.3876 31.5445H34.1111C34.3538 31.5445 34.5505 31.3478 34.5505 31.1051C34.5505 30.8623 34.3538 30.6656 34.1111 30.6656H33.3577C33.3537 30.1494 33.3727 29.6323 33.4152 29.1183V29.1183ZM36.5494 36.9523C36.5494 37.5968 36.0252 38.1211 35.3807 38.1211H32.9633C32.8314 38.1211 32.7241 38.0138 32.7241 37.8819V34.5349C32.7241 34.403 32.8314 34.2957 32.9633 34.2957H35.3807C36.0252 34.2957 36.5494 34.82 36.5494 35.4645V36.9523ZM26.0993 21.9018C26.342 21.9018 26.5387 21.7051 26.5387 21.4624V20.5529C26.5387 20.3101 26.342 20.1134 26.0993 20.1134C25.8565 20.1134 25.6598 20.3101 25.6598 20.5529V21.4624C25.6598 21.7051 25.8565 21.9018 26.0993 21.9018ZM20.9572 20.1134C20.7145 20.1134 20.5178 20.3101 20.5178 20.5529V21.4624C20.5178 21.7051 20.7145 21.9018 20.9572 21.9018C21.1999 21.9018 21.3967 21.7051 21.3967 21.4624V20.5529C21.3967 20.3101 21.1999 20.1134 20.9572 20.1134ZM23.5932 24.8347C24.04 24.8187 24.3751 24.6438 24.5776 24.5C24.7754 24.3594 24.8218 24.085 24.6812 23.8872C24.5407 23.6894 24.2664 23.6429 24.0685 23.7836C23.9828 23.8444 23.8033 23.9477 23.5618 23.9563C23.289 23.9665 23.0848 23.8521 22.9875 23.7831C22.7895 23.6429 22.5151 23.6897 22.3749 23.8877C22.2346 24.0858 22.2815 24.3601 22.4795 24.5003C22.6441 24.617 23.1106 24.852 23.5932 24.8347V24.8347Z" fill="black"/>
</g>
<defs>
<clipPath id="clip0">
<rect width="30" height="30" fill="white" transform="translate(10 9)"/>
</clipPath>
</defs>
</svg>
