<svg width="50" height="50" viewBox="0 0 50 50" fill="none" xmlns="http://www.w3.org/2000/svg">
<circle cx="25" cy="25" r="25" fill="#529D63"/>
<path d="M32.9565 35.7115V39.5605C32.9565 39.8031 32.7596 40 32.517 40H17.483C17.2405 40 17.0436 39.8031 17.0436 39.5605V35.7115C17.0436 33.0344 19.2215 30.8559 21.8987 30.8559H28.1014C30.7785 30.8559 32.9565 33.0344 32.9565 35.7115Z" fill="#FB403F"/>
<path d="M28.1013 30.8561H26.4412C29.1183 30.8561 31.2963 33.0341 31.2963 35.7113V39.5605C31.2963 39.8032 31.0996 40 30.8568 40H32.517C32.7597 40 32.9564 39.8032 32.9564 39.5605V35.7113C32.9564 33.0341 30.7784 30.8561 28.1013 30.8561Z" fill="#C21C1C"/>
<path d="M33.0911 18.8192C33.0496 18.6142 32.8695 18.4668 32.6603 18.4668H17.3398C17.1307 18.4668 16.9504 18.6142 16.909 18.8192C16.4691 20.9959 16.4691 23.2033 16.909 25.38C16.9504 25.5851 17.1306 25.7325 17.3398 25.7325H32.6603C32.8695 25.7325 33.0497 25.5851 33.0911 25.38C33.5309 23.2033 33.5309 20.9959 33.0911 18.8192Z" fill="#484655"/>
<path d="M31.6381 37.6369V40H18.3619V37.6369C18.3619 37.3937 18.5588 37.1975 18.8014 37.1975H19.0334V36.2769C19.0334 35.6975 19.2871 35.1514 19.7301 34.7787C20.1731 34.4055 20.7549 34.2484 21.325 34.3469L25 34.982L28.675 34.3469C29.2451 34.2484 29.827 34.4055 30.2699 34.7787C30.7129 35.1514 30.9666 35.6975 30.9666 36.2769V37.1975H31.1986C31.4412 37.1975 31.6381 37.3937 31.6381 37.6369Z" fill="#78D6D1"/>
<path d="M22.5334 25.6872V30.9998C22.5334 32.3621 23.6378 33.4664 25 33.4664C26.3622 33.4664 27.4666 32.3621 27.4666 30.9998V25.6872H22.5334Z" fill="#FA9E3E"/>
<path d="M17.3735 23.1244H20.2662V26.4414H17.3735C16.4575 26.4414 15.715 25.6988 15.715 24.7829C15.715 23.867 16.4575 23.1244 17.3735 23.1244Z" fill="#FA9E3E"/>
<path d="M32.6267 23.1244H29.7339V26.4414H32.6267C33.5426 26.4414 34.2852 25.6988 34.2852 24.7829C34.2852 23.867 33.5426 23.1244 32.6267 23.1244Z" fill="#FA9E3E"/>
<path d="M25 30.0853C21.3719 30.0853 18.4307 27.1442 18.4307 23.5161V16.8719H31.5692V23.5161C31.5692 27.1442 28.628 30.0853 25 30.0853Z" fill="#FFB56B"/>
<path d="M30.2019 16.8719V24.1998C30.2019 27.3391 27.744 29.9041 24.6475 30.0759C24.7642 30.0821 24.8817 30.0853 24.9999 30.0853C28.628 30.0853 31.5691 27.1442 31.5691 23.5161V16.8719H30.2019Z" fill="#EF9245"/>
<path d="M28.183 23.2986C27.9402 23.2986 27.7435 23.1018 27.7435 22.8591V22.7419C27.7435 22.4992 27.9402 22.3025 28.183 22.3025C28.4257 22.3025 28.6224 22.4992 28.6224 22.7419V22.8591C28.6224 23.1019 28.4257 23.2986 28.183 23.2986Z" fill="#19303F"/>
<path d="M21.817 23.2986C21.5743 23.2986 21.3776 23.1018 21.3776 22.8591V22.7419C21.3776 22.4992 21.5743 22.3025 21.817 22.3025C22.0598 22.3025 22.2565 22.4992 22.2565 22.7419V22.8591C22.2565 23.1019 22.0597 23.2986 21.817 23.2986Z" fill="#19303F"/>
<path d="M25.0001 26.9034C24.2095 26.9034 23.4684 26.5148 23.0177 25.864C22.8796 25.6645 22.9293 25.3907 23.1288 25.2525C23.3282 25.1144 23.6021 25.1641 23.7402 25.3636C24.0268 25.7775 24.4977 26.0245 25.0001 26.0245C25.5024 26.0245 25.9733 25.7775 26.2599 25.3636C26.398 25.1641 26.6717 25.1144 26.8713 25.2525C27.0708 25.3907 27.1206 25.6645 26.9825 25.864C26.5319 26.5148 25.7907 26.9034 25.0001 26.9034Z" fill="#19303F"/>
<path d="M33.4025 19.7021L31.1982 11.859C30.8905 10.7644 29.8816 10 28.7446 10H27.4721C27.1159 10 26.7691 10.1016 26.4693 10.2938L25.9938 10.5987C25.3899 10.9857 24.6098 10.9857 24.006 10.5987L23.5305 10.2938C23.2306 10.1016 22.8839 10 22.5277 10H21.5113C20.3743 10 19.3654 10.7644 19.0577 11.859L16.8534 19.7021C16.8162 19.8345 16.8432 19.9768 16.9263 20.0864C17.0093 20.1961 17.1389 20.2605 17.2765 20.2605H32.9794C33.117 20.2605 33.2466 20.1961 33.3297 20.0864C33.4127 19.9768 33.4397 19.8345 33.4025 19.7021Z" fill="#D69400"/>
<path d="M33.4027 19.7021L31.1984 11.859C30.8907 10.7644 29.8819 10 28.7449 10H27.4723C27.4096 10 27.3475 10.0043 27.2856 10.0105C28.3277 10.1045 29.2249 10.838 29.5119 11.859L31.7162 19.7021C31.7534 19.8345 31.7264 19.9768 31.6433 20.0864C31.5602 20.1961 31.4306 20.2605 31.2931 20.2605H32.9796C33.1172 20.2605 33.2468 20.1961 33.3299 20.0864C33.413 19.9768 33.4399 19.8345 33.4027 19.7021Z" fill="#B77A00"/>
<path d="M33.4027 19.7021L32.4531 16.3234C32.4149 16.1873 32.3134 16.0779 32.1806 16.0295C30.1702 15.2963 27.6202 14.8926 25.0001 14.8926C22.4791 14.8926 20.0975 15.2498 18.1129 15.9258C17.9759 15.9724 17.8707 16.0836 17.8315 16.2228L16.8536 19.7021C16.8164 19.8345 16.8433 19.9768 16.9264 20.0864C17.0095 20.1961 17.1391 20.2605 17.2767 20.2605H32.9796C33.1172 20.2605 33.2468 20.1961 33.3299 20.0864C33.413 19.9768 33.4399 19.8345 33.4027 19.7021Z" fill="#825939"/>
<path d="M33.4027 19.7021L32.4531 16.3234C32.4149 16.1873 32.3134 16.0779 32.1806 16.0295C31.668 15.8425 31.1199 15.6773 30.5449 15.5344L31.7161 19.702C31.7534 19.8344 31.7264 19.9767 31.6433 20.0863C31.5602 20.196 31.4306 20.2604 31.293 20.2604H32.9796C33.1172 20.2604 33.2468 20.196 33.3299 20.0863C33.413 19.9768 33.4399 19.8345 33.4027 19.7021Z" fill="#684229"/>
<path d="M35.292 18.1644C35.1565 17.8058 34.8894 17.5213 34.5399 17.3635C34.1904 17.2057 33.8005 17.1935 33.4418 17.329C27.998 19.386 22.002 19.3859 16.5583 17.329C15.8181 17.0492 14.9879 17.4239 14.708 18.1644C14.5725 18.5231 14.5847 18.9131 14.7425 19.2626C14.9002 19.6121 15.1848 19.8792 15.5434 20.0147C18.5782 21.1615 21.7599 21.743 25.0001 21.743C28.2402 21.743 31.4219 21.1615 34.4566 20.0148C34.8153 19.8793 35.0999 19.6121 35.2576 19.2626C35.4154 18.9131 35.4276 18.5231 35.292 18.1644Z" fill="#FFB700"/>
<path d="M28.6925 37.5975C29.1348 37.5975 29.4933 37.2389 29.4933 36.7967C29.4933 36.3544 29.1348 35.9959 28.6925 35.9959C28.2503 35.9959 27.8917 36.3544 27.8917 36.7967C27.8917 37.2389 28.2503 37.5975 28.6925 37.5975Z" fill="#FFB700"/>
<path d="M28.6929 36.4356C28.4501 36.4356 28.2534 36.2388 28.2534 35.9961V30.957C28.2534 30.7144 28.4501 30.5176 28.6929 30.5176C28.9356 30.5176 29.1323 30.7144 29.1323 30.957V35.9961C29.1323 36.2388 28.9356 36.4356 28.6929 36.4356Z" fill="#5B5BB2"/>
<path d="M21.3068 37.5975C21.7491 37.5975 22.1076 37.239 22.1076 36.7967C22.1076 36.3544 21.7491 35.9959 21.3068 35.9959C20.8646 35.9959 20.506 36.3544 20.506 36.7967C20.506 37.239 20.8646 37.5975 21.3068 37.5975Z" fill="#FFB700"/>
<path d="M21.3071 36.4356C21.0644 36.4356 20.8677 36.2388 20.8677 35.9961V30.957C20.8677 30.7144 21.0644 30.5176 21.3071 30.5176C21.5499 30.5176 21.7466 30.7144 21.7466 30.957V35.9961C21.7466 36.2388 21.5498 36.4356 21.3071 36.4356Z" fill="#5B5BB2"/>
<path d="M26.6211 38.4668H23.3788C23.1361 38.4668 22.9394 38.27 22.9394 38.0273C22.9394 37.7846 23.1361 37.5879 23.3788 37.5879H26.6211C26.8638 37.5879 27.0605 37.7846 27.0605 38.0273C27.0605 38.27 26.8638 38.4668 26.6211 38.4668Z" fill="#3D5868"/>
<path d="M28.6926 38.0371C28.0088 38.0371 27.4525 37.4808 27.4525 36.7969C27.4525 36.113 28.0088 35.5566 28.6926 35.5566C29.3766 35.5566 29.9329 36.113 29.9329 36.7969C29.9329 37.4808 29.3766 38.0371 28.6926 38.0371ZM28.6926 36.4356C28.4934 36.4356 28.3314 36.5977 28.3314 36.7969C28.3314 36.9961 28.4934 37.1583 28.6926 37.1583C28.8919 37.1583 29.054 36.9962 29.054 36.7969C29.054 36.5976 28.8919 36.4356 28.6926 36.4356Z" fill="#19303F"/>
<path d="M21.3071 38.0371C20.6232 38.0371 20.0668 37.4808 20.0668 36.7969C20.0668 36.113 20.6232 35.5566 21.3071 35.5566C21.9909 35.5566 22.5473 36.113 22.5473 36.7969C22.5473 37.4808 21.9909 38.0371 21.3071 38.0371ZM21.3071 36.4356C21.1079 36.4356 20.9457 36.5977 20.9457 36.7969C20.9457 36.9961 21.1079 37.1583 21.3071 37.1583C21.5063 37.1583 21.6684 36.9962 21.6684 36.7969C21.6684 36.5976 21.5063 36.4356 21.3071 36.4356Z" fill="#19303F"/>
</svg>
