<svg width="50" height="50" viewBox="0 0 50 50" fill="none" xmlns="http://www.w3.org/2000/svg">
<circle cx="25" cy="25" r="25" fill="#529D63"/>
<path d="M25.5264 20.8438C24.6663 20.8438 23.9163 20.2583 23.7072 19.4234L22.6562 15.6875L21.6939 19.0686C21.4328 20.1116 20.4953 20.8438 19.42 20.8438H15.625V23.6562C15.625 26.5039 17.9336 28.8125 20.7812 28.8125C23.6289 28.8125 25.9375 26.5039 25.9375 23.6562V20.8438H25.5264Z" fill="#FCE0B9"/>
<path d="M28.2812 22.25V20.1181C28.2812 16.0798 25.1777 12.605 21.1436 12.4147C16.8367 12.2122 13.2812 15.6439 13.2812 19.9062V22.25C12.2458 22.25 11.4062 23.0895 11.4062 24.125C11.4062 25.1605 12.2458 26 13.2812 26C13.2812 27.2942 14.3308 28.3437 15.625 28.3437H18.4375V28.2453C16.7692 27.3912 15.625 25.6592 15.625 23.6562V20.8437H14.6875H15.625H19.42C20.4953 20.8437 21.4328 20.1115 21.6939 19.0686L22.6562 15.6875L23.7077 19.4234C23.9163 20.2583 24.6663 20.8437 25.5269 20.8437H25.9375H26.875H25.9375V23.6562C25.9375 25.6592 24.7933 27.3912 23.125 28.2453V28.3437H25.9375C27.2317 28.3437 28.2812 27.2942 28.2812 26C29.3167 26 30.1562 25.1605 30.1562 24.125C30.1562 23.0895 29.3167 22.25 28.2812 22.25V22.25Z" fill="#904C2A"/>
<path d="M20.7812 28.8125C20.0172 28.8125 19.2944 28.6419 18.6423 28.3438H18.4375V30.6875H17.0312C17.0312 31.723 17.8708 32.5625 18.9062 32.5625H22.6562C23.6917 32.5625 24.5312 31.723 24.5312 30.6875H23.125V28.3438H22.9202C22.2681 28.6419 21.5453 28.8125 20.7812 28.8125Z" fill="#FCE0B9"/>
<path d="M15.1562 35.8438H26.4062V39.5938H15.1562V35.8438Z" fill="#3A4C63"/>
<path d="M30.1394 35.9816C30.0048 33.6791 28.4898 31.752 26.4062 31.0147C25.8189 30.8066 25.1898 30.6875 24.5312 30.6875C24.5312 31.723 23.6917 32.5625 22.6562 32.5625H18.9062C17.8708 32.5625 17.0312 31.723 17.0312 30.6875C16.3727 30.6875 15.7436 30.8066 15.1562 31.0142C12.9728 31.7872 11.4062 33.8642 11.4062 36.3125V39.5938H15.1562V35.8438H26.4062V39.5938H30.1562C30.1562 39.5938 30.1459 36.0917 30.1394 35.9816Z" fill="#71CAF0"/>
<path d="M37.6562 28.3438H36.25H31.0938H29.6875L30.7759 33.4241C30.9616 34.2884 31.7256 34.9062 32.6097 34.9062H32.9688H33.9062H34.8438H35.2028C36.0869 34.9062 36.8509 34.2884 37.0361 33.4241L38.125 28.3438H37.6562Z" fill="#D1A250"/>
<path d="M32.822 35.3708C32.807 35.3773 32.7911 35.382 32.7761 35.3886L31.0938 39.5938H36.7188L35.0092 35.3197L33.9062 34.9062L32.822 35.3708Z" fill="#D1A250"/>
<path d="M32.0312 27.4062L31.0938 24.5938L30.1562 27.4062C30.1562 27.9242 30.5758 28.3438 31.0938 28.3438C31.6117 28.3438 32.0312 27.9242 32.0312 27.4062Z" fill="#5E9446"/>
<path d="M38.5938 25.5312L37.6562 22.7188L36.7188 25.5312C36.7188 26.0492 37.1383 26.4688 37.6562 26.4688C38.1742 26.4688 38.5938 26.0492 38.5938 25.5312Z" fill="#5E9446"/>
<path d="M33.9062 23.6562C33.3883 23.6562 32.9688 24.0758 32.9688 24.5938C32.4508 24.5938 32.0312 25.0133 32.0312 25.5312C32.0312 26.0492 32.4508 26.4688 32.9688 26.4688C32.9688 26.9867 33.3883 27.4062 33.9062 27.4062C34.4242 27.4062 34.8438 26.9867 34.8438 26.4688C35.3617 26.4688 35.7812 26.0492 35.7812 25.5312C35.7812 25.0133 35.3617 24.5938 34.8438 24.5938C34.8438 24.0758 34.4242 23.6562 33.9062 23.6562Z" fill="#FC7F60"/>
<path d="M32.0312 18.9688C31.5133 18.9688 31.0938 19.3883 31.0938 19.9062C30.5758 19.9062 30.1562 20.3258 30.1562 20.8438C30.1562 21.3617 30.5758 21.7812 31.0938 21.7812C31.0938 22.2992 31.5133 22.7188 32.0312 22.7188C32.5492 22.7188 32.9688 22.2992 32.9688 21.7812C33.4867 21.7812 33.9062 21.3617 33.9062 20.8438C33.9062 20.3258 33.4867 19.9062 32.9688 19.9062C32.9688 19.3883 32.5492 18.9688 32.0312 18.9688Z" fill="#FC7F60"/>
<path d="M37.6562 20.8438C38.1742 20.8438 38.5938 20.4242 38.5938 19.9062C38.5938 19.3883 38.1742 18.9688 37.6562 18.9688C37.6562 18.4508 37.2367 18.0312 36.7188 18.0312C36.2008 18.0312 35.7812 18.4508 35.7812 18.9688C35.2633 18.9688 34.8438 19.3883 34.8438 19.9062C34.8438 20.4242 35.2633 20.8438 35.7812 20.8438C35.7812 21.3617 36.2008 21.7812 36.7188 21.7812C37.2367 21.7812 37.6562 21.3617 37.6562 20.8438Z" fill="#FC7F60"/>
<path d="M34.375 18.9688C34.893 18.9688 35.3125 18.5492 35.3125 18.0312L34.375 15.2188L33.4375 18.0312C33.4375 18.5492 33.857 18.9688 34.375 18.9688Z" fill="#5E9446"/>
<path d="M23.125 29.6516V28.3438H22.9202C22.2681 28.6419 21.5453 28.8125 20.7812 28.8125C20.0172 28.8125 19.2944 28.6419 18.6423 28.3438H18.4375V29.6516C19.1411 30.0116 19.9366 30.2188 20.7812 30.2188C21.6259 30.2188 22.4214 30.0116 23.125 29.6516Z" fill="#F5CBA1"/>
<path d="M25.5264 20.8438C24.6663 20.8438 23.9163 20.2583 23.7072 19.4234L22.6562 15.6875L21.6939 19.0686C21.4328 20.1116 20.4953 20.8438 19.42 20.8438H15.625V22.25C17.2731 22.25 19.2095 22.6067 20.6917 21.7391C20.9491 21.5886 21.1862 21.4105 21.4014 21.2103C22.3614 20.3164 22.8709 18.9884 22.7528 17.6895C22.8653 18.8005 22.5813 19.7661 23.125 20.8438C23.3903 21.3697 23.9617 21.6931 24.4783 21.9261C24.602 21.9819 25.9375 22.5191 25.9375 22.25V20.8438H25.5264ZM22.6609 17.1209C22.7059 17.3089 22.7331 17.4912 22.7519 17.6703C22.7341 17.4861 22.7041 17.3028 22.6609 17.1209Z" fill="#F5CBA1"/>
<path d="M28.2812 23.1875C29.1541 23.1875 29.8806 23.7866 30.0902 24.5938C30.1291 24.4433 30.1562 24.2877 30.1562 24.125C30.1562 23.0895 29.3167 22.25 28.2812 22.25V23.1875Z" fill="#AB5A32"/>
<path d="M21.1436 13.3522C25.1777 13.542 28.2812 17.0173 28.2812 21.0556V20.1181C28.2812 16.0798 25.1777 12.605 21.1436 12.4147C16.8367 12.2122 13.2812 15.6439 13.2812 19.9062V20.8437C13.2812 16.5814 16.8367 13.1497 21.1436 13.3522V13.3522Z" fill="#AB5A32"/>
<path d="M13.2812 23.1875V22.25C12.2458 22.25 11.4062 23.0895 11.4062 24.125C11.4062 24.2877 11.4334 24.4433 11.4723 24.5938C11.6819 23.7866 12.4084 23.1875 13.2812 23.1875Z" fill="#AB5A32"/>
<path d="M23.8281 25.0625C24.2165 25.0625 24.5312 24.9576 24.5312 24.8281C24.5312 24.6987 24.2165 24.5938 23.8281 24.5938C23.4398 24.5938 23.125 24.6987 23.125 24.8281C23.125 24.9576 23.4398 25.0625 23.8281 25.0625Z" fill="#FCCCC0"/>
<path d="M17.7344 25.0625C18.1227 25.0625 18.4375 24.9576 18.4375 24.8281C18.4375 24.6987 18.1227 24.5938 17.7344 24.5938C17.346 24.5938 17.0312 24.6987 17.0312 24.8281C17.0312 24.9576 17.346 25.0625 17.7344 25.0625Z" fill="#FCCCC0"/>
<path d="M37.0366 32.0178C36.8509 32.8822 36.0869 33.5 35.2028 33.5H34.8438H33.9062H32.9688H32.6097C31.7256 33.5 30.9616 32.8822 30.7764 32.0178L29.9889 28.3438H29.6875L30.7759 33.4241C30.9616 34.2884 31.7256 34.9062 32.6097 34.9062H32.9688H33.9062H34.8438H35.2028C36.0869 34.9062 36.8509 34.2884 37.0361 33.4241L38.125 28.3438H37.8236L37.0366 32.0178Z" fill="#A37E3E"/>
<path d="M32.7756 37.2636C32.7906 37.257 32.8066 37.2523 32.8216 37.2458L33.9062 36.7812L35.0092 37.1947L35.9688 39.5938H36.7188L35.0092 35.3197L33.9062 34.9062L32.822 35.3708C32.807 35.3773 32.7911 35.382 32.7761 35.3886L31.0938 39.5938H31.8437L32.7756 37.2636Z" fill="#A37E3E"/>
<path d="M15.1562 31.9517C15.7436 31.7441 16.3727 31.625 17.0312 31.625C17.0312 32.6605 17.8708 33.5 18.9062 33.5H22.6562C23.6917 33.5 24.5312 32.6605 24.5312 31.625C25.1898 31.625 25.8189 31.7441 26.4062 31.9517C28.4898 32.6895 30.0053 34.6161 30.1394 36.9186C30.1436 36.9917 30.1497 38.5475 30.153 39.5933H30.1562C30.1562 39.5933 30.1459 36.0912 30.1394 35.9811C30.0048 33.6786 28.4898 31.7516 26.4062 31.0142C25.8189 30.8066 25.1898 30.6875 24.5312 30.6875C24.5312 31.723 23.6917 32.5625 22.6562 32.5625H18.9062C17.8708 32.5625 17.0312 31.723 17.0312 30.6875C16.3727 30.6875 15.7436 30.8066 15.1562 31.0142C12.9728 31.7872 11.4062 33.8642 11.4062 36.3125V37.25C11.4062 34.8017 12.9728 32.7247 15.1562 31.9517Z" fill="#67B9DB"/>
<path d="M18.4375 24.0078C17.9852 24.0078 17.6172 23.6398 17.6172 23.1875C17.6172 22.7352 17.9852 22.3672 18.4375 22.3672C18.8898 22.3672 19.2578 22.7352 19.2578 23.1875C19.2578 23.6398 18.8898 24.0078 18.4375 24.0078ZM18.4375 23.0703C18.3728 23.0703 18.3203 23.1228 18.3203 23.1875C18.3203 23.3164 18.5547 23.3164 18.5547 23.1875C18.5547 23.1228 18.5022 23.0703 18.4375 23.0703Z" fill="black"/>
<path d="M23.125 24.0078C22.6727 24.0078 22.3047 23.6398 22.3047 23.1875C22.3047 22.7352 22.6727 22.3672 23.125 22.3672C23.5773 22.3672 23.9453 22.7352 23.9453 23.1875C23.9453 23.6398 23.5773 24.0078 23.125 24.0078ZM23.125 23.0703C23.0603 23.0703 23.0078 23.1228 23.0078 23.1875C23.0078 23.3164 23.2422 23.3164 23.2422 23.1875C23.2422 23.1228 23.1897 23.0703 23.125 23.0703Z" fill="black"/>
<path d="M20.7812 27.2891C19.8123 27.2891 19.0234 26.5002 19.0234 25.5312H19.7266C19.7266 26.1125 20.2 26.5859 20.7812 26.5859C21.3625 26.5859 21.8359 26.1125 21.8359 25.5312H22.5391C22.5391 26.5002 21.7502 27.2891 20.7812 27.2891Z" fill="black"/>
<path d="M37.1495 22.1806C37.5864 22.0395 37.9309 21.6917 38.0645 21.252C38.6416 21.0767 39.0625 20.54 39.0625 19.9062C39.0625 19.2725 38.6416 18.7358 38.0645 18.5605C37.8892 17.9834 37.3525 17.5625 36.7188 17.5625C36.3503 17.5625 36.0175 17.7078 35.7662 17.9403C35.7625 17.9211 35.763 17.9014 35.7569 17.8831L34.8194 15.0706C34.7561 14.8789 34.577 14.75 34.375 14.75C34.173 14.75 33.9939 14.8789 33.9306 15.0706L32.9931 17.8831C32.9772 17.9309 32.9688 17.9811 32.9688 18.0312C32.9688 18.8066 33.5997 19.4375 34.375 19.4375C34.4041 19.4375 34.4317 19.4305 34.4603 19.4291C34.4064 19.5781 34.375 19.7384 34.375 19.9062C34.375 20.54 34.7959 21.0767 35.373 21.252C35.4977 21.6626 35.8075 21.9912 36.2036 22.1483C36.1159 22.5837 35.8586 23.3201 35.1119 23.8784C34.8662 23.4664 34.4195 23.1875 33.9062 23.1875C33.3358 23.1875 32.8459 23.5306 32.6256 24.0195C32.3706 23.6581 32.3622 23.337 32.3955 23.135C32.8633 23.0089 33.2369 22.6512 33.377 22.1895C33.9541 22.0142 34.375 21.4775 34.375 20.8437C34.375 20.21 33.9541 19.6733 33.377 19.498C33.2017 18.9209 32.665 18.5 32.0312 18.5C31.3975 18.5 30.8608 18.9209 30.6855 19.498C30.1084 19.6733 29.6875 20.21 29.6875 20.8437C29.6875 21.4775 30.1084 22.0142 30.6855 22.1895C30.8045 22.5809 31.0923 22.8969 31.4613 23.0619C31.4116 23.4612 31.4622 24.0308 31.9052 24.6186C31.8236 24.7133 31.7547 24.8183 31.7008 24.9322L31.5386 24.4451C31.4748 24.2539 31.2958 24.125 31.0938 24.125C30.8917 24.125 30.7127 24.2539 30.6494 24.4456L29.7119 27.2581C29.6959 27.3059 29.6875 27.3561 29.6875 27.4062C29.6875 27.5712 29.7212 27.7278 29.7737 27.875H29.6875C29.5459 27.875 29.4119 27.9392 29.3233 28.0489C29.2342 28.1591 29.1995 28.3034 29.2295 28.4422L30.318 33.5225C30.49 34.3236 31.0708 34.9601 31.8105 35.232C31.4008 35.3516 30.9836 35.4383 30.5617 35.4833C30.1548 32.5151 27.6091 30.2187 24.5312 30.2187H23.5938V28.8125H25.9375C27.3428 28.8125 28.5105 27.7766 28.7177 26.428C29.8019 26.2231 30.625 25.2683 30.625 24.125C30.625 22.993 29.8183 22.0461 28.75 21.8286V20.1186C28.75 15.7367 25.4191 12.1475 21.1656 11.9469C18.9667 11.8451 16.8728 12.6219 15.2809 14.1401C13.6891 15.6584 12.8125 17.7069 12.8125 19.9062V21.8286C11.7442 22.0461 10.9375 22.993 10.9375 24.125C10.9375 25.2683 11.7606 26.2231 12.8448 26.428C13.052 27.7766 14.2197 28.8125 15.625 28.8125H17.9688V30.2187H17.0312C13.6712 30.2187 10.9375 32.9525 10.9375 36.3125V39.5937C10.9375 39.853 11.147 40.0625 11.4062 40.0625H30.1562C30.4155 40.0625 30.625 39.853 30.625 39.5937V36.4203C31.0755 36.3739 31.5212 36.2867 31.9605 36.1653L30.6587 39.4198C30.6011 39.5642 30.6189 39.7278 30.7061 39.8567C30.7928 39.9851 30.9381 40.0625 31.0938 40.0625H36.7188C36.8744 40.0625 37.0197 39.9851 37.1069 39.8567C37.1941 39.7283 37.2119 39.5642 37.1542 39.4198L35.8389 36.132L35.9097 36.1583C36.8514 36.5112 37.645 37.1408 38.2042 37.9789L38.9842 37.4591C38.3153 36.4559 37.3661 35.7026 36.2392 35.2808L36.0508 35.21C36.7666 34.9283 37.3272 34.3058 37.495 33.523L38.5834 28.4426C38.613 28.3039 38.5787 28.1595 38.4897 28.0494C38.4006 27.9392 38.2666 27.875 38.125 27.875V26.8512C38.6692 26.6572 39.0625 26.1416 39.0625 25.5312C39.0625 25.4811 39.0541 25.4309 39.0381 25.3831L38.1006 22.5706C38.0373 22.3789 37.8583 22.25 37.6562 22.25C37.4542 22.25 37.2752 22.3789 37.2119 22.5706L36.2744 25.3831C36.2584 25.4309 36.25 25.4811 36.25 25.5312C36.25 26.1416 36.6433 26.6572 37.1875 26.8512V27.875H36.6705C36.5486 27.2464 36.197 26.8072 35.8436 26.5156C36.0939 26.262 36.25 25.9151 36.25 25.5312C36.25 25.1333 36.0836 24.7737 35.8169 24.5178C36.7708 23.7359 37.0628 22.7305 37.1495 22.1806V22.1806ZM33.9105 18.0945L34.375 16.7009L34.8395 18.0945C34.8086 18.3233 34.6122 18.5 34.375 18.5C34.1378 18.5 33.9414 18.3233 33.9105 18.0945V18.0945ZM35.7812 20.375C35.5225 20.375 35.3125 20.165 35.3125 19.9062C35.3125 19.6475 35.5225 19.4375 35.7812 19.4375C36.0405 19.4375 36.25 19.228 36.25 18.9687C36.25 18.71 36.46 18.5 36.7188 18.5C36.9775 18.5 37.1875 18.71 37.1875 18.9687C37.1875 19.228 37.397 19.4375 37.6562 19.4375C37.915 19.4375 38.125 19.6475 38.125 19.9062C38.125 20.165 37.915 20.375 37.6562 20.375C37.397 20.375 37.1875 20.5845 37.1875 20.8437C37.1875 21.1025 36.9775 21.3125 36.7188 21.3125C36.46 21.3125 36.25 21.1025 36.25 20.8437C36.25 20.5845 36.0405 20.375 35.7812 20.375ZM37.6562 24.2009L38.1208 25.5945C38.0898 25.8233 37.8934 26 37.6562 26C37.4191 26 37.2227 25.8233 37.1917 25.5945L37.6562 24.2009ZM32.9688 25.0625C33.228 25.0625 33.4375 24.853 33.4375 24.5937C33.4375 24.335 33.6475 24.125 33.9062 24.125C34.165 24.125 34.375 24.335 34.375 24.5937C34.375 24.853 34.5845 25.0625 34.8438 25.0625C35.1025 25.0625 35.3125 25.2725 35.3125 25.5312C35.3125 25.79 35.1025 26 34.8438 26C34.5845 26 34.375 26.2095 34.375 26.4687C34.375 26.7275 34.165 26.9375 33.9062 26.9375C33.6475 26.9375 33.4375 26.7275 33.4375 26.4687C33.4375 26.2095 33.228 26 32.9688 26C32.71 26 32.5 25.79 32.5 25.5312C32.5 25.2725 32.71 25.0625 32.9688 25.0625ZM31.0938 21.3125C30.835 21.3125 30.625 21.1025 30.625 20.8437C30.625 20.585 30.835 20.375 31.0938 20.375C31.353 20.375 31.5625 20.1655 31.5625 19.9062C31.5625 19.6475 31.7725 19.4375 32.0312 19.4375C32.29 19.4375 32.5 19.6475 32.5 19.9062C32.5 20.1655 32.7095 20.375 32.9688 20.375C33.2275 20.375 33.4375 20.585 33.4375 20.8437C33.4375 21.1025 33.2275 21.3125 32.9688 21.3125C32.7095 21.3125 32.5 21.522 32.5 21.7812C32.5 22.04 32.29 22.25 32.0312 22.25C31.7725 22.25 31.5625 22.04 31.5625 21.7812C31.5625 21.522 31.353 21.3125 31.0938 21.3125ZM30.6292 27.4695L31.0938 26.0759L31.5583 27.4695C31.5273 27.6983 31.3309 27.875 31.0938 27.875C30.8566 27.875 30.6602 27.6983 30.6292 27.4695ZM15.625 36.3125H25.9375V39.125H15.625V36.3125ZM16.0938 23.6562V21.3125H19.42C20.7133 21.3125 21.835 20.4364 22.1448 19.1966L22.6534 17.4092L23.2525 19.5369C23.5089 20.5634 24.4159 21.2816 25.4688 21.3078V23.6562C25.4688 26.2409 23.3659 28.3437 20.7812 28.3437C18.1966 28.3437 16.0938 26.2409 16.0938 23.6562ZM13.75 26C13.75 25.7408 13.5405 25.5312 13.2812 25.5312C12.5059 25.5312 11.875 24.9003 11.875 24.125C11.875 23.3497 12.5059 22.7187 13.2812 22.7187C13.5405 22.7187 13.75 22.5092 13.75 22.25V19.9062C13.75 17.9651 14.5234 16.1586 15.9283 14.8184C17.3322 13.4792 19.1744 12.7892 21.1216 12.8834C24.8734 13.0601 27.8125 16.2378 27.8125 20.1181V22.25C27.8125 22.5092 28.022 22.7187 28.2812 22.7187C29.0566 22.7187 29.6875 23.3497 29.6875 24.125C29.6875 24.9003 29.0566 25.5312 28.2812 25.5312C28.022 25.5312 27.8125 25.7408 27.8125 26C27.8125 27.0341 26.9716 27.875 25.9375 27.875H24.4895C25.6619 26.8433 26.4062 25.3367 26.4062 23.6562V21.3125H26.875V20.375H25.5264C24.88 20.375 24.3189 19.9367 24.1586 19.2964L23.1077 15.5605C23.0509 15.3589 22.8667 15.2192 22.6572 15.2187C22.6567 15.2187 22.6567 15.2187 22.6562 15.2187C22.4467 15.2187 22.2625 15.358 22.2053 15.5595L21.2392 18.9551C21.0302 19.7909 20.282 20.375 19.42 20.375H14.6875V21.3125H15.1562V23.6562C15.1562 25.3367 15.9006 26.8433 17.073 27.875H15.625C14.5909 27.875 13.75 27.0341 13.75 26ZM18.4375 31.1562C18.6967 31.1562 18.9062 30.9467 18.9062 30.6875V28.9531C19.4936 29.1617 20.1231 29.2812 20.7812 29.2812C21.4394 29.2812 22.0689 29.1617 22.6562 28.9531V30.6875C22.6562 30.9467 22.8658 31.1562 23.125 31.1562H23.9762C23.7822 31.7005 23.2666 32.0937 22.6562 32.0937H18.9062C18.2959 32.0937 17.7803 31.7005 17.5863 31.1562H18.4375ZM18.9062 33.0312H22.6562C23.7822 33.0312 24.7253 32.2334 24.9498 31.1731C25.2897 31.2003 25.6197 31.2622 25.9375 31.3522V35.375H15.625V31.3522C15.9433 31.2617 16.2733 31.2003 16.6127 31.1731C16.8372 32.2334 17.7803 33.0312 18.9062 33.0312ZM11.875 36.3125C11.875 34.3133 13.0202 32.5784 14.6875 31.7234V39.125H11.875V36.3125ZM26.875 39.125V31.7234C28.3169 32.4626 29.3631 33.8609 29.6209 35.5184C29.2047 35.5086 28.7875 35.4664 28.3736 35.3839L28.1894 36.3031C28.6867 36.4025 29.1878 36.4498 29.6875 36.4564V39.125H26.875ZM36.0264 39.125H31.7856L33.1375 35.7453L33.9175 35.4111L34.6506 35.6862L36.0264 39.125ZM36.5781 33.3256C36.4398 33.9701 35.8619 34.4375 35.2033 34.4375H34.8822L36.1478 32.8555C36.2139 32.772 36.25 32.6694 36.25 32.5625V31.625H35.3125V32.398L33.9977 34.0414L33.4375 32.9206V32.0937H32.5V33.0312C32.5 33.1039 32.5169 33.1761 32.5492 33.2408L33.1478 34.4375H32.9688H32.6092C31.9506 34.4375 31.3722 33.9701 31.2339 33.3256L30.2673 28.8125H37.5447L36.5781 33.3256ZM33.9062 27.875H32.4138C32.4663 27.7278 32.5 27.5712 32.5 27.4062C32.5 27.3561 32.4916 27.3059 32.4756 27.2581L32.3139 26.7725C32.3927 26.8142 32.4738 26.8508 32.5605 26.877C32.7358 27.4541 33.2725 27.875 33.9062 27.875C34.4331 27.875 34.8897 27.5816 35.1306 27.1517C35.3444 27.3036 35.5727 27.5384 35.6936 27.875H33.9062Z" fill="black"/>
</svg>
