<svg width="414" height="152" viewBox="0 0 414 152" fill="none" xmlns="http://www.w3.org/2000/svg">
<rect width="414" height="152" fill="#529D63"/>
<path d="M44.3 76.21C42.84 76.21 41.52 75.96 40.34 75.46C39.18 74.96 38.26 74.24 37.58 73.3C36.9 72.36 36.55 71.25 36.53 69.97H41.03C41.09 70.83 41.39 71.51 41.93 72.01C42.49 72.51 43.25 72.76 44.21 72.76C45.19 72.76 45.96 72.53 46.52 72.07C47.08 71.59 47.36 70.97 47.36 70.21C47.36 69.59 47.17 69.08 46.79 68.68C46.41 68.28 45.93 67.97 45.35 67.75C44.79 67.51 44.01 67.25 43.01 66.97C41.65 66.57 40.54 66.18 39.68 65.8C38.84 65.4 38.11 64.81 37.49 64.03C36.89 63.23 36.59 62.17 36.59 60.85C36.59 59.61 36.9 58.53 37.52 57.61C38.14 56.69 39.01 55.99 40.13 55.51C41.25 55.01 42.53 54.76 43.97 54.76C46.13 54.76 47.88 55.29 49.22 56.35C50.58 57.39 51.33 58.85 51.47 60.73H46.85C46.81 60.01 46.5 59.42 45.92 58.96C45.36 58.48 44.61 58.24 43.67 58.24C42.85 58.24 42.19 58.45 41.69 58.87C41.21 59.29 40.97 59.9 40.97 60.7C40.97 61.26 41.15 61.73 41.51 62.11C41.89 62.47 42.35 62.77 42.89 63.01C43.45 63.23 44.23 63.49 45.23 63.79C46.59 64.19 47.7 64.59 48.56 64.99C49.42 65.39 50.16 65.99 50.78 66.79C51.4 67.59 51.71 68.64 51.71 69.94C51.71 71.06 51.42 72.1 50.84 73.06C50.26 74.02 49.41 74.79 48.29 75.37C47.17 75.93 45.84 76.21 44.3 76.21ZM57.4813 57.4C56.7413 57.4 56.1213 57.17 55.6213 56.71C55.1413 56.23 54.9013 55.64 54.9013 54.94C54.9013 54.24 55.1413 53.66 55.6213 53.2C56.1213 52.72 56.7413 52.48 57.4813 52.48C58.2213 52.48 58.8313 52.72 59.3113 53.2C59.8113 53.66 60.0613 54.24 60.0613 54.94C60.0613 55.64 59.8113 56.23 59.3113 56.71C58.8313 57.17 58.2213 57.4 57.4813 57.4ZM59.5513 59.38V76H55.3513V59.38H59.5513ZM70.2109 59.11C71.4509 59.11 72.5409 59.36 73.4809 59.86C74.4209 60.34 75.1609 60.97 75.7009 61.75V59.38H79.9309V76.12C79.9309 77.66 79.6209 79.03 79.0009 80.23C78.3809 81.45 77.4509 82.41 76.2109 83.11C74.9709 83.83 73.4709 84.19 71.7109 84.19C69.3509 84.19 67.4109 83.64 65.8909 82.54C64.3909 81.44 63.5409 79.94 63.3409 78.04H67.5109C67.7309 78.8 68.2009 79.4 68.9209 79.84C69.6609 80.3 70.5509 80.53 71.5909 80.53C72.8109 80.53 73.8009 80.16 74.5609 79.42C75.3209 78.7 75.7009 77.6 75.7009 76.12V73.54C75.1609 74.32 74.4109 74.97 73.4509 75.49C72.5109 76.01 71.4309 76.27 70.2109 76.27C68.8109 76.27 67.5309 75.91 66.3709 75.19C65.2109 74.47 64.2909 73.46 63.6109 72.16C62.9509 70.84 62.6209 69.33 62.6209 67.63C62.6209 65.95 62.9509 64.46 63.6109 63.16C64.2909 61.86 65.2009 60.86 66.3409 60.16C67.5009 59.46 68.7909 59.11 70.2109 59.11ZM75.7009 67.69C75.7009 66.67 75.5009 65.8 75.1009 65.08C74.7009 64.34 74.1609 63.78 73.4809 63.4C72.8009 63 72.0709 62.8 71.2909 62.8C70.5109 62.8 69.7909 62.99 69.1309 63.37C68.4709 63.75 67.9309 64.31 67.5109 65.05C67.1109 65.77 66.9109 66.63 66.9109 67.63C66.9109 68.63 67.1109 69.51 67.5109 70.27C67.9309 71.01 68.4709 71.58 69.1309 71.98C69.8109 72.38 70.5309 72.58 71.2909 72.58C72.0709 72.58 72.8009 72.39 73.4809 72.01C74.1609 71.61 74.7009 71.05 75.1009 70.33C75.5009 69.59 75.7009 68.71 75.7009 67.69ZM93.2429 59.14C95.2229 59.14 96.8229 59.77 98.0429 61.03C99.2629 62.27 99.8729 64.01 99.8729 66.25V76H95.6729V66.82C95.6729 65.5 95.3429 64.49 94.6829 63.79C94.0229 63.07 93.1229 62.71 91.9829 62.71C90.8229 62.71 89.9029 63.07 89.2229 63.79C88.5629 64.49 88.2329 65.5 88.2329 66.82V76H84.0329V59.38H88.2329V61.45C88.7929 60.73 89.5029 60.17 90.3629 59.77C91.2429 59.35 92.2029 59.14 93.2429 59.14ZM115.215 55.06V76H111.015V55.06H115.215ZM128.575 59.14C130.555 59.14 132.155 59.77 133.375 61.03C134.595 62.27 135.205 64.01 135.205 66.25V76H131.005V66.82C131.005 65.5 130.675 64.49 130.015 63.79C129.355 63.07 128.455 62.71 127.315 62.71C126.155 62.71 125.235 63.07 124.555 63.79C123.895 64.49 123.565 65.5 123.565 66.82V76H119.365V59.38H123.565V61.45C124.125 60.73 124.835 60.17 125.695 59.77C126.575 59.35 127.535 59.14 128.575 59.14Z" fill="white"/>
<path d="M49.112 100.544V113H47.474V103.712L43.334 113H42.182L38.024 103.694V113H36.386V100.544H38.15L42.758 110.84L47.366 100.544H49.112ZM51.2779 108.032C51.2779 107.024 51.4819 106.142 51.8899 105.386C52.2979 104.618 52.8559 104.024 53.5639 103.604C54.2839 103.184 55.0819 102.974 55.9579 102.974C56.8219 102.974 57.5719 103.16 58.2079 103.532C58.8439 103.904 59.3179 104.372 59.6299 104.936V103.136H61.2859V113H59.6299V111.164C59.3059 111.74 58.8199 112.22 58.1719 112.604C57.5359 112.976 56.7919 113.162 55.9399 113.162C55.0639 113.162 54.2719 112.946 53.5639 112.514C52.8559 112.082 52.2979 111.476 51.8899 110.696C51.4819 109.916 51.2779 109.028 51.2779 108.032ZM59.6299 108.05C59.6299 107.306 59.4799 106.658 59.1799 106.106C58.8799 105.554 58.4719 105.134 57.9559 104.846C57.4519 104.546 56.8939 104.396 56.2819 104.396C55.6699 104.396 55.1119 104.54 54.6079 104.828C54.1039 105.116 53.7019 105.536 53.4019 106.088C53.1019 106.64 52.9519 107.288 52.9519 108.032C52.9519 108.788 53.1019 109.448 53.4019 110.012C53.7019 110.564 54.1039 110.99 54.6079 111.29C55.1119 111.578 55.6699 111.722 56.2819 111.722C56.8939 111.722 57.4519 111.578 57.9559 111.29C58.4719 110.99 58.8799 110.564 59.1799 110.012C59.4799 109.448 59.6299 108.794 59.6299 108.05ZM67.546 113.162C66.79 113.162 66.112 113.036 65.512 112.784C64.912 112.52 64.438 112.16 64.09 111.704C63.742 111.236 63.55 110.702 63.514 110.102H65.206C65.254 110.594 65.482 110.996 65.89 111.308C66.31 111.62 66.856 111.776 67.528 111.776C68.152 111.776 68.644 111.638 69.004 111.362C69.364 111.086 69.544 110.738 69.544 110.318C69.544 109.886 69.352 109.568 68.968 109.364C68.584 109.148 67.99 108.938 67.186 108.734C66.454 108.542 65.854 108.35 65.386 108.158C64.93 107.954 64.534 107.66 64.198 107.276C63.874 106.88 63.712 106.364 63.712 105.728C63.712 105.224 63.862 104.762 64.162 104.342C64.462 103.922 64.888 103.592 65.44 103.352C65.992 103.1 66.622 102.974 67.33 102.974C68.422 102.974 69.304 103.25 69.976 103.802C70.648 104.354 71.008 105.11 71.056 106.07H69.418C69.382 105.554 69.172 105.14 68.788 104.828C68.416 104.516 67.912 104.36 67.276 104.36C66.688 104.36 66.22 104.486 65.872 104.738C65.524 104.99 65.35 105.32 65.35 105.728C65.35 106.052 65.452 106.322 65.656 106.538C65.872 106.742 66.136 106.91 66.448 107.042C66.772 107.162 67.216 107.3 67.78 107.456C68.488 107.648 69.064 107.84 69.508 108.032C69.952 108.212 70.33 108.488 70.642 108.86C70.966 109.232 71.134 109.718 71.146 110.318C71.146 110.858 70.996 111.344 70.696 111.776C70.396 112.208 69.97 112.55 69.418 112.802C68.878 113.042 68.254 113.162 67.546 113.162ZM82.2063 103.136V113H80.5683V111.542C80.2563 112.046 79.8183 112.442 79.2543 112.73C78.7023 113.006 78.0903 113.144 77.4183 113.144C76.6503 113.144 75.9603 112.988 75.3483 112.676C74.7363 112.352 74.2503 111.872 73.8903 111.236C73.5423 110.6 73.3683 109.826 73.3683 108.914V103.136H74.9883V108.698C74.9883 109.67 75.2343 110.42 75.7263 110.948C76.2183 111.464 76.8903 111.722 77.7423 111.722C78.6183 111.722 79.3083 111.452 79.8123 110.912C80.3163 110.372 80.5683 109.586 80.5683 108.554V103.136H82.2063ZM90.4799 113L86.6099 108.644V113H84.9719V99.68H86.6099V107.51L90.4079 103.136H92.6939L88.0499 108.05L92.7119 113H90.4799ZM98.4224 108.032C98.4224 107.024 98.6264 106.142 99.0344 105.386C99.4424 104.618 100 104.024 100.708 103.604C101.428 103.184 102.232 102.974 103.12 102.974C103.888 102.974 104.602 103.154 105.262 103.514C105.922 103.862 106.426 104.324 106.774 104.9V99.68H108.43V113H106.774V111.146C106.45 111.734 105.97 112.22 105.334 112.604C104.698 112.976 103.954 113.162 103.102 113.162C102.226 113.162 101.428 112.946 100.708 112.514C100 112.082 99.4424 111.476 99.0344 110.696C98.6264 109.916 98.4224 109.028 98.4224 108.032ZM106.774 108.05C106.774 107.306 106.624 106.658 106.324 106.106C106.024 105.554 105.616 105.134 105.1 104.846C104.596 104.546 104.038 104.396 103.426 104.396C102.814 104.396 102.256 104.54 101.752 104.828C101.248 105.116 100.846 105.536 100.546 106.088C100.246 106.64 100.096 107.288 100.096 108.032C100.096 108.788 100.246 109.448 100.546 110.012C100.846 110.564 101.248 110.99 101.752 111.29C102.256 111.578 102.814 111.722 103.426 111.722C104.038 111.722 104.596 111.578 105.1 111.29C105.616 110.99 106.024 110.564 106.324 110.012C106.624 109.448 106.774 108.794 106.774 108.05ZM110.587 108.032C110.587 107.024 110.791 106.142 111.199 105.386C111.607 104.618 112.165 104.024 112.873 103.604C113.593 103.184 114.391 102.974 115.267 102.974C116.131 102.974 116.881 103.16 117.517 103.532C118.153 103.904 118.627 104.372 118.939 104.936V103.136H120.595V113H118.939V111.164C118.615 111.74 118.129 112.22 117.481 112.604C116.845 112.976 116.101 113.162 115.249 113.162C114.373 113.162 113.581 112.946 112.873 112.514C112.165 112.082 111.607 111.476 111.199 110.696C110.791 109.916 110.587 109.028 110.587 108.032ZM118.939 108.05C118.939 107.306 118.789 106.658 118.489 106.106C118.189 105.554 117.781 105.134 117.265 104.846C116.761 104.546 116.203 104.396 115.591 104.396C114.979 104.396 114.421 104.54 113.917 104.828C113.413 105.116 113.011 105.536 112.711 106.088C112.411 106.64 112.261 107.288 112.261 108.032C112.261 108.788 112.411 109.448 112.711 110.012C113.011 110.564 113.413 110.99 113.917 111.29C114.421 111.578 114.979 111.722 115.591 111.722C116.203 111.722 116.761 111.578 117.265 111.29C117.781 110.99 118.189 110.564 118.489 110.012C118.789 109.448 118.939 108.794 118.939 108.05ZM128.169 102.956C129.369 102.956 130.341 103.322 131.085 104.054C131.829 104.774 132.201 105.818 132.201 107.186V113H130.581V107.42C130.581 106.436 130.335 105.686 129.843 105.17C129.351 104.642 128.679 104.378 127.827 104.378C126.963 104.378 126.273 104.648 125.757 105.188C125.253 105.728 125.001 106.514 125.001 107.546V113H123.363V103.136H125.001V104.54C125.325 104.036 125.763 103.646 126.315 103.37C126.879 103.094 127.497 102.956 128.169 102.956ZM151.537 102.956C152.305 102.956 152.989 103.118 153.589 103.442C154.189 103.754 154.663 104.228 155.011 104.864C155.359 105.5 155.533 106.274 155.533 107.186V113H153.913V107.42C153.913 106.436 153.667 105.686 153.175 105.17C152.695 104.642 152.041 104.378 151.213 104.378C150.361 104.378 149.683 104.654 149.179 105.206C148.675 105.746 148.423 106.532 148.423 107.564V113H146.803V107.42C146.803 106.436 146.557 105.686 146.065 105.17C145.585 104.642 144.931 104.378 144.103 104.378C143.251 104.378 142.573 104.654 142.069 105.206C141.565 105.746 141.313 106.532 141.313 107.564V113H139.675V103.136H141.313V104.558C141.637 104.042 142.069 103.646 142.609 103.37C143.161 103.094 143.767 102.956 144.427 102.956C145.255 102.956 145.987 103.142 146.623 103.514C147.259 103.886 147.733 104.432 148.045 105.152C148.321 104.456 148.777 103.916 149.413 103.532C150.049 103.148 150.757 102.956 151.537 102.956ZM166.968 103.136V113H165.33V111.542C165.018 112.046 164.58 112.442 164.016 112.73C163.464 113.006 162.852 113.144 162.18 113.144C161.412 113.144 160.722 112.988 160.11 112.676C159.498 112.352 159.012 111.872 158.652 111.236C158.304 110.6 158.13 109.826 158.13 108.914V103.136H159.75V108.698C159.75 109.67 159.996 110.42 160.488 110.948C160.98 111.464 161.652 111.722 162.504 111.722C163.38 111.722 164.07 111.452 164.574 110.912C165.078 110.372 165.33 109.586 165.33 108.554V103.136H166.968ZM171.372 99.68V113H169.734V99.68H171.372ZM173.551 108.032C173.551 107.024 173.755 106.142 174.163 105.386C174.571 104.618 175.129 104.024 175.837 103.604C176.557 103.184 177.355 102.974 178.231 102.974C179.095 102.974 179.845 103.16 180.481 103.532C181.117 103.904 181.591 104.372 181.903 104.936V103.136H183.559V113H181.903V111.164C181.579 111.74 181.093 112.22 180.445 112.604C179.809 112.976 179.065 113.162 178.213 113.162C177.337 113.162 176.545 112.946 175.837 112.514C175.129 112.082 174.571 111.476 174.163 110.696C173.755 109.916 173.551 109.028 173.551 108.032ZM181.903 108.05C181.903 107.306 181.753 106.658 181.453 106.106C181.153 105.554 180.745 105.134 180.229 104.846C179.725 104.546 179.167 104.396 178.555 104.396C177.943 104.396 177.385 104.54 176.881 104.828C176.377 105.116 175.975 105.536 175.675 106.088C175.375 106.64 175.225 107.288 175.225 108.032C175.225 108.788 175.375 109.448 175.675 110.012C175.975 110.564 176.377 110.99 176.881 111.29C177.385 111.578 177.943 111.722 178.555 111.722C179.167 111.722 179.725 111.578 180.229 111.29C180.745 110.99 181.153 110.564 181.453 110.012C181.753 109.448 181.903 108.794 181.903 108.05ZM187.173 101.534C186.861 101.534 186.597 101.426 186.381 101.21C186.165 100.994 186.057 100.73 186.057 100.418C186.057 100.106 186.165 99.842 186.381 99.626C186.597 99.41 186.861 99.302 187.173 99.302C187.473 99.302 187.725 99.41 187.929 99.626C188.145 99.842 188.253 100.106 188.253 100.418C188.253 100.73 188.145 100.994 187.929 101.21C187.725 101.426 187.473 101.534 187.173 101.534ZM187.965 103.136V113H186.327V103.136H187.965ZM197.194 104.972C197.53 104.384 198.022 103.904 198.67 103.532C199.318 103.16 200.056 102.974 200.884 102.974C201.772 102.974 202.57 103.184 203.278 103.604C203.986 104.024 204.544 104.618 204.952 105.386C205.36 106.142 205.564 107.024 205.564 108.032C205.564 109.028 205.36 109.916 204.952 110.696C204.544 111.476 203.98 112.082 203.26 112.514C202.552 112.946 201.76 113.162 200.884 113.162C200.032 113.162 199.282 112.976 198.634 112.604C197.998 112.232 197.518 111.758 197.194 111.182V113H195.556V99.68H197.194V104.972ZM203.89 108.032C203.89 107.288 203.74 106.64 203.44 106.088C203.14 105.536 202.732 105.116 202.216 104.828C201.712 104.54 201.154 104.396 200.542 104.396C199.942 104.396 199.384 104.546 198.868 104.846C198.364 105.134 197.956 105.56 197.644 106.124C197.344 106.676 197.194 107.318 197.194 108.05C197.194 108.794 197.344 109.448 197.644 110.012C197.956 110.564 198.364 110.99 198.868 111.29C199.384 111.578 199.942 111.722 200.542 111.722C201.154 111.722 201.712 111.578 202.216 111.29C202.732 110.99 203.14 110.564 203.44 110.012C203.74 109.448 203.89 108.788 203.89 108.032ZM216.72 107.69C216.72 108.002 216.702 108.332 216.666 108.68H208.782C208.842 109.652 209.172 110.414 209.772 110.966C210.384 111.506 211.122 111.776 211.986 111.776C212.694 111.776 213.282 111.614 213.75 111.29C214.23 110.954 214.566 110.51 214.758 109.958H216.522C216.258 110.906 215.73 111.68 214.938 112.28C214.146 112.868 213.162 113.162 211.986 113.162C211.05 113.162 210.21 112.952 209.466 112.532C208.734 112.112 208.158 111.518 207.738 110.75C207.318 109.97 207.108 109.07 207.108 108.05C207.108 107.03 207.312 106.136 207.72 105.368C208.128 104.6 208.698 104.012 209.43 103.604C210.174 103.184 211.026 102.974 211.986 102.974C212.922 102.974 213.75 103.178 214.47 103.586C215.19 103.994 215.742 104.558 216.126 105.278C216.522 105.986 216.72 106.79 216.72 107.69ZM215.028 107.348C215.028 106.724 214.89 106.19 214.614 105.746C214.338 105.29 213.96 104.948 213.48 104.72C213.012 104.48 212.49 104.36 211.914 104.36C211.086 104.36 210.378 104.624 209.79 105.152C209.214 105.68 208.884 106.412 208.8 107.348H215.028ZM220.52 104.738C220.808 104.174 221.216 103.736 221.744 103.424C222.284 103.112 222.938 102.956 223.706 102.956V104.648H223.274C221.438 104.648 220.52 105.644 220.52 107.636V113H218.882V103.136H220.52V104.738ZM231.105 113L227.235 108.644V113H225.597V99.68H227.235V107.51L231.033 103.136H233.319L228.675 108.05L233.337 113H231.105ZM239.163 113.162C238.239 113.162 237.399 112.952 236.643 112.532C235.899 112.112 235.311 111.518 234.879 110.75C234.459 109.97 234.249 109.07 234.249 108.05C234.249 107.042 234.465 106.154 234.897 105.386C235.341 104.606 235.941 104.012 236.697 103.604C237.453 103.184 238.299 102.974 239.235 102.974C240.171 102.974 241.017 103.184 241.773 103.604C242.529 104.012 243.123 104.6 243.555 105.368C243.999 106.136 244.221 107.03 244.221 108.05C244.221 109.07 243.993 109.97 243.537 110.75C243.093 111.518 242.487 112.112 241.719 112.532C240.951 112.952 240.099 113.162 239.163 113.162ZM239.163 111.722C239.751 111.722 240.303 111.584 240.819 111.308C241.335 111.032 241.749 110.618 242.061 110.066C242.385 109.514 242.547 108.842 242.547 108.05C242.547 107.258 242.391 106.586 242.079 106.034C241.767 105.482 241.359 105.074 240.855 104.81C240.351 104.534 239.805 104.396 239.217 104.396C238.617 104.396 238.065 104.534 237.561 104.81C237.069 105.074 236.673 105.482 236.373 106.034C236.073 106.586 235.923 107.258 235.923 108.05C235.923 108.854 236.067 109.532 236.355 110.084C236.655 110.636 237.051 111.05 237.543 111.326C238.035 111.59 238.575 111.722 239.163 111.722ZM251.18 102.956C252.38 102.956 253.352 103.322 254.096 104.054C254.84 104.774 255.212 105.818 255.212 107.186V113H253.592V107.42C253.592 106.436 253.346 105.686 252.854 105.17C252.362 104.642 251.69 104.378 250.838 104.378C249.974 104.378 249.284 104.648 248.768 105.188C248.264 105.728 248.012 106.514 248.012 107.546V113H246.374V103.136H248.012V104.54C248.336 104.036 248.774 103.646 249.326 103.37C249.89 103.094 250.508 102.956 251.18 102.956ZM261.38 113.162C260.624 113.162 259.946 113.036 259.346 112.784C258.746 112.52 258.272 112.16 257.924 111.704C257.576 111.236 257.384 110.702 257.348 110.102H259.04C259.088 110.594 259.316 110.996 259.724 111.308C260.144 111.62 260.69 111.776 261.362 111.776C261.986 111.776 262.478 111.638 262.838 111.362C263.198 111.086 263.378 110.738 263.378 110.318C263.378 109.886 263.186 109.568 262.802 109.364C262.418 109.148 261.824 108.938 261.02 108.734C260.288 108.542 259.688 108.35 259.22 108.158C258.764 107.954 258.368 107.66 258.032 107.276C257.708 106.88 257.546 106.364 257.546 105.728C257.546 105.224 257.696 104.762 257.996 104.342C258.296 103.922 258.722 103.592 259.274 103.352C259.826 103.1 260.456 102.974 261.164 102.974C262.256 102.974 263.138 103.25 263.81 103.802C264.482 104.354 264.842 105.11 264.89 106.07H263.252C263.216 105.554 263.006 105.14 262.622 104.828C262.25 104.516 261.746 104.36 261.11 104.36C260.522 104.36 260.054 104.486 259.706 104.738C259.358 104.99 259.184 105.32 259.184 105.728C259.184 106.052 259.286 106.322 259.49 106.538C259.706 106.742 259.97 106.91 260.282 107.042C260.606 107.162 261.05 107.3 261.614 107.456C262.322 107.648 262.898 107.84 263.342 108.032C263.786 108.212 264.164 108.488 264.476 108.86C264.8 109.232 264.968 109.718 264.98 110.318C264.98 110.858 264.83 111.344 264.53 111.776C264.23 112.208 263.804 112.55 263.252 112.802C262.712 113.042 262.088 113.162 261.38 113.162ZM276.04 103.136V113H274.402V111.542C274.09 112.046 273.652 112.442 273.088 112.73C272.536 113.006 271.924 113.144 271.252 113.144C270.484 113.144 269.794 112.988 269.182 112.676C268.57 112.352 268.084 111.872 267.724 111.236C267.376 110.6 267.202 109.826 267.202 108.914V103.136H268.822V108.698C268.822 109.67 269.068 110.42 269.56 110.948C270.052 111.464 270.724 111.722 271.576 111.722C272.452 111.722 273.142 111.452 273.646 110.912C274.15 110.372 274.402 109.586 274.402 108.554V103.136H276.04ZM280.444 99.68V113H278.806V99.68H280.444ZM285.234 104.486V110.3C285.234 110.78 285.336 111.122 285.54 111.326C285.744 111.518 286.098 111.614 286.602 111.614H287.808V113H286.332C285.42 113 284.736 112.79 284.28 112.37C283.824 111.95 283.596 111.26 283.596 110.3V104.486H282.318V103.136H283.596V100.652H285.234V103.136H287.808V104.486H285.234ZM289.18 108.032C289.18 107.024 289.384 106.142 289.792 105.386C290.2 104.618 290.758 104.024 291.466 103.604C292.186 103.184 292.984 102.974 293.86 102.974C294.724 102.974 295.474 103.16 296.11 103.532C296.746 103.904 297.22 104.372 297.532 104.936V103.136H299.188V113H297.532V111.164C297.208 111.74 296.722 112.22 296.074 112.604C295.438 112.976 294.694 113.162 293.842 113.162C292.966 113.162 292.174 112.946 291.466 112.514C290.758 112.082 290.2 111.476 289.792 110.696C289.384 109.916 289.18 109.028 289.18 108.032ZM297.532 108.05C297.532 107.306 297.382 106.658 297.082 106.106C296.782 105.554 296.374 105.134 295.858 104.846C295.354 104.546 294.796 104.396 294.184 104.396C293.572 104.396 293.014 104.54 292.51 104.828C292.006 105.116 291.604 105.536 291.304 106.088C291.004 106.64 290.854 107.288 290.854 108.032C290.854 108.788 291.004 109.448 291.304 110.012C291.604 110.564 292.006 110.99 292.51 111.29C293.014 111.578 293.572 111.722 294.184 111.722C294.796 111.722 295.354 111.578 295.858 111.29C296.374 110.99 296.782 110.564 297.082 110.012C297.382 109.448 297.532 108.794 297.532 108.05ZM305.448 113.162C304.692 113.162 304.014 113.036 303.414 112.784C302.814 112.52 302.34 112.16 301.992 111.704C301.644 111.236 301.452 110.702 301.416 110.102H303.108C303.156 110.594 303.384 110.996 303.792 111.308C304.212 111.62 304.758 111.776 305.43 111.776C306.054 111.776 306.546 111.638 306.906 111.362C307.266 111.086 307.446 110.738 307.446 110.318C307.446 109.886 307.254 109.568 306.87 109.364C306.486 109.148 305.892 108.938 305.088 108.734C304.356 108.542 303.756 108.35 303.288 108.158C302.832 107.954 302.436 107.66 302.1 107.276C301.776 106.88 301.614 106.364 301.614 105.728C301.614 105.224 301.764 104.762 302.064 104.342C302.364 103.922 302.79 103.592 303.342 103.352C303.894 103.1 304.524 102.974 305.232 102.974C306.324 102.974 307.206 103.25 307.878 103.802C308.55 104.354 308.91 105.11 308.958 106.07H307.32C307.284 105.554 307.074 105.14 306.69 104.828C306.318 104.516 305.814 104.36 305.178 104.36C304.59 104.36 304.122 104.486 303.774 104.738C303.426 104.99 303.252 105.32 303.252 105.728C303.252 106.052 303.354 106.322 303.558 106.538C303.774 106.742 304.038 106.91 304.35 107.042C304.674 107.162 305.118 107.3 305.682 107.456C306.39 107.648 306.966 107.84 307.41 108.032C307.854 108.212 308.232 108.488 308.544 108.86C308.868 109.232 309.036 109.718 309.048 110.318C309.048 110.858 308.898 111.344 308.598 111.776C308.298 112.208 307.872 112.55 307.32 112.802C306.78 113.042 306.156 113.162 305.448 113.162ZM312.207 101.534C311.895 101.534 311.631 101.426 311.415 101.21C311.199 100.994 311.091 100.73 311.091 100.418C311.091 100.106 311.199 99.842 311.415 99.626C311.631 99.41 311.895 99.302 312.207 99.302C312.507 99.302 312.759 99.41 312.963 99.626C313.179 99.842 313.287 100.106 313.287 100.418C313.287 100.73 313.179 100.994 312.963 101.21C312.759 101.426 312.507 101.534 312.207 101.534ZM312.999 103.136V113H311.361V103.136H312.999Z" fill="white"/>
</svg>
